<svg xmlns="http://www.w3.org/2000/svg" xmlns:xlink="http://www.w3.org/1999/xlink" width="500" zoomAndPan="magnify" viewBox="0 0 375 374.999991" height="500" preserveAspectRatio="xMidYMid meet" version="1.0"><defs><clipPath id="3071e7e087"><path d="M 258 108 L 262.777344 108 L 262.777344 114 L 258 114 Z M 258 108 " clip-rule="nonzero"/></clipPath><clipPath id="09bf586154"><path d="M 259 136 L 262.777344 136 L 262.777344 142 L 259 142 Z M 259 136 " clip-rule="nonzero"/></clipPath><clipPath id="f87157035a"><path d="M 257 145 L 262.777344 145 L 262.777344 152 L 257 152 Z M 257 145 " clip-rule="nonzero"/></clipPath><clipPath id="d701735c2f"><path d="M 259 118 L 262.777344 118 L 262.777344 123 L 259 123 Z M 259 118 " clip-rule="nonzero"/></clipPath><clipPath id="94c3c3ad76"><path d="M 259 127 L 262.777344 127 L 262.777344 133 L 259 133 Z M 259 127 " clip-rule="nonzero"/></clipPath><clipPath id="adb6a63738"><path d="M 34.777344 89 L 237 89 L 237 260 L 34.777344 260 Z M 34.777344 89 " clip-rule="nonzero"/></clipPath></defs><g clip-path="url(#3071e7e087)"><path fill="#000000" d="M 262.484375 113.507812 C 262.40625 111.679688 261.921875 109.96875 261.039062 108.367188 L 258.199219 109.929688 C 258.839844 111.089844 259.191406 112.332031 259.246094 113.65625 Z M 262.484375 113.507812 " fill-opacity="1" fill-rule="nonzero"/></g><path fill="#000000" d="M 224.40625 102.257812 L 229.054688 102.257812 L 229.054688 105.5 L 224.40625 105.5 Z M 224.40625 102.257812 " fill-opacity="1" fill-rule="nonzero"/><path fill="#000000" d="M 233.699219 102.257812 L 238.347656 102.257812 L 238.347656 105.5 L 233.699219 105.5 Z M 233.699219 102.257812 " fill-opacity="1" fill-rule="nonzero"/><g clip-path="url(#09bf586154)"><path fill="#000000" d="M 259.257812 136.816406 L 262.496094 136.816406 L 262.496094 141.460938 L 259.257812 141.460938 Z M 259.257812 136.816406 " fill-opacity="1" fill-rule="nonzero"/></g><g clip-path="url(#f87157035a)"><path fill="#000000" d="M 257.199219 149.121094 L 259.660156 151.230469 C 260.847656 149.839844 261.671875 148.257812 262.125 146.484375 L 258.988281 145.679688 C 258.65625 146.964844 258.058594 148.113281 257.199219 149.121094 Z M 257.199219 149.121094 " fill-opacity="1" fill-rule="nonzero"/></g><g clip-path="url(#d701735c2f)"><path fill="#000000" d="M 259.257812 118.234375 L 262.496094 118.234375 L 262.496094 122.878906 L 259.257812 122.878906 Z M 259.257812 118.234375 " fill-opacity="1" fill-rule="nonzero"/></g><path fill="#000000" d="M 240.902344 152.105469 L 245.546875 152.105469 L 245.546875 155.34375 L 240.902344 155.34375 Z M 240.902344 152.105469 " fill-opacity="1" fill-rule="nonzero"/><g clip-path="url(#94c3c3ad76)"><path fill="#000000" d="M 259.257812 127.523438 L 262.496094 127.523438 L 262.496094 132.171875 L 259.257812 132.171875 Z M 259.257812 127.523438 " fill-opacity="1" fill-rule="nonzero"/></g><path fill="#000000" d="M 252.523438 102.402344 L 252.023438 105.613281 C 253.332031 105.820312 254.527344 106.304688 255.613281 107.0625 L 257.488281 104.414062 C 255.988281 103.359375 254.335938 102.6875 252.523438 102.402344 Z M 252.523438 102.402344 " fill-opacity="1" fill-rule="nonzero"/><path fill="#000000" d="M 242.992188 102.257812 L 247.636719 102.257812 L 247.636719 105.5 L 242.992188 105.5 Z M 242.992188 102.257812 " fill-opacity="1" fill-rule="nonzero"/><path fill="#000000" d="M 250.691406 152.105469 L 250.191406 152.105469 L 250.191406 155.34375 L 250.691406 155.34375 C 252.316406 155.347656 253.871094 155.027344 255.363281 154.382812 L 254.089844 151.40625 C 253.007812 151.875 251.871094 152.109375 250.691406 152.105469 Z M 250.691406 152.105469 " fill-opacity="1" fill-rule="nonzero"/><path fill="#000000" d="M 189.707031 55.773438 L 192.066406 55.773438 L 192.066406 59.011719 L 189.707031 59.011719 Z M 189.707031 55.773438 " fill-opacity="1" fill-rule="nonzero"/><path fill="#000000" d="M 119.925781 102.257812 L 124.71875 102.257812 L 124.71875 105.5 L 119.925781 105.5 Z M 119.925781 102.257812 " fill-opacity="1" fill-rule="nonzero"/><path fill="#000000" d="M 129.507812 102.257812 L 134.300781 102.257812 L 134.300781 105.5 L 129.507812 105.5 Z M 129.507812 102.257812 " fill-opacity="1" fill-rule="nonzero"/><path fill="#000000" d="M 122.617188 55.773438 L 127.410156 55.773438 L 127.410156 59.011719 L 122.617188 59.011719 Z M 122.617188 55.773438 " fill-opacity="1" fill-rule="nonzero"/><path fill="#000000" d="M 113.03125 55.773438 L 117.824219 55.773438 L 117.824219 59.011719 L 113.03125 59.011719 Z M 113.03125 55.773438 " fill-opacity="1" fill-rule="nonzero"/><path fill="#000000" d="M 100.753906 102.257812 L 105.546875 102.257812 L 105.546875 105.5 L 100.753906 105.5 Z M 100.753906 102.257812 " fill-opacity="1" fill-rule="nonzero"/><path fill="#000000" d="M 110.339844 102.257812 L 115.132812 102.257812 L 115.132812 105.5 L 110.339844 105.5 Z M 110.339844 102.257812 " fill-opacity="1" fill-rule="nonzero"/><path fill="#000000" d="M 103.445312 55.773438 L 108.238281 55.773438 L 108.238281 59.011719 L 103.445312 59.011719 Z M 103.445312 55.773438 " fill-opacity="1" fill-rule="nonzero"/><path fill="#000000" d="M 132.199219 55.773438 L 136.992188 55.773438 L 136.992188 59.011719 L 132.199219 59.011719 Z M 132.199219 55.773438 " fill-opacity="1" fill-rule="nonzero"/><path fill="#000000" d="M 180.125 55.773438 L 184.917969 55.773438 L 184.917969 59.011719 L 180.125 59.011719 Z M 180.125 55.773438 " fill-opacity="1" fill-rule="nonzero"/><path fill="#000000" d="M 170.539062 55.773438 L 175.332031 55.773438 L 175.332031 59.011719 L 170.539062 59.011719 Z M 170.539062 55.773438 " fill-opacity="1" fill-rule="nonzero"/><path fill="#000000" d="M 160.953125 55.773438 L 165.746094 55.773438 L 165.746094 59.011719 L 160.953125 59.011719 Z M 160.953125 55.773438 " fill-opacity="1" fill-rule="nonzero"/><path fill="#000000" d="M 141.785156 55.773438 L 146.578125 55.773438 L 146.578125 59.011719 L 141.785156 59.011719 Z M 141.785156 55.773438 " fill-opacity="1" fill-rule="nonzero"/><path fill="#000000" d="M 151.371094 55.773438 L 156.164062 55.773438 L 156.164062 59.011719 L 151.371094 59.011719 Z M 151.371094 55.773438 " fill-opacity="1" fill-rule="nonzero"/><path fill="#000000" d="M 54.140625 63.5 L 51.292969 61.949219 C 50.394531 63.609375 49.917969 65.382812 49.871094 67.269531 L 53.109375 67.351562 C 53.140625 65.984375 53.484375 64.699219 54.140625 63.5 Z M 54.140625 63.5 " fill-opacity="1" fill-rule="nonzero"/><path fill="#000000" d="M 62.414062 102.257812 L 67.207031 102.257812 L 67.207031 105.5 L 62.414062 105.5 Z M 62.414062 102.257812 " fill-opacity="1" fill-rule="nonzero"/><path fill="#000000" d="M 60.53125 59.089844 L 60.105469 55.878906 C 58.234375 56.128906 56.523438 56.789062 54.96875 57.859375 L 56.8125 60.535156 C 57.9375 59.757812 59.175781 59.273438 60.53125 59.089844 Z M 60.53125 59.089844 " fill-opacity="1" fill-rule="nonzero"/><path fill="#000000" d="M 93.863281 55.773438 L 98.65625 55.773438 L 98.65625 59.011719 L 93.863281 59.011719 Z M 93.863281 55.773438 " fill-opacity="1" fill-rule="nonzero"/><path fill="#000000" d="M 49.867188 72.101562 L 53.105469 72.101562 L 53.105469 76.894531 L 49.867188 76.894531 Z M 49.867188 72.101562 " fill-opacity="1" fill-rule="nonzero"/><path fill="#000000" d="M 53.335938 95.667969 C 53.183594 95.019531 53.105469 94.359375 53.109375 93.691406 L 53.109375 91.28125 L 49.867188 91.28125 L 49.867188 93.691406 C 49.867188 94.609375 49.96875 95.519531 50.179688 96.414062 Z M 53.335938 95.667969 " fill-opacity="1" fill-rule="nonzero"/><path fill="#000000" d="M 49.867188 81.6875 L 53.105469 81.6875 L 53.105469 86.480469 L 49.867188 86.480469 Z M 49.867188 81.6875 " fill-opacity="1" fill-rule="nonzero"/><path fill="#000000" d="M 55.128906 99.230469 L 52.660156 101.328125 C 53.878906 102.765625 55.355469 103.847656 57.09375 104.582031 L 58.347656 101.59375 C 57.089844 101.058594 56.015625 100.273438 55.128906 99.230469 Z M 55.128906 99.230469 " fill-opacity="1" fill-rule="nonzero"/><path fill="#000000" d="M 81.585938 102.257812 L 86.378906 102.257812 L 86.378906 105.5 L 81.585938 105.5 Z M 81.585938 102.257812 " fill-opacity="1" fill-rule="nonzero"/><path fill="#000000" d="M 84.273438 55.773438 L 89.070312 55.773438 L 89.070312 59.011719 L 84.273438 59.011719 Z M 84.273438 55.773438 " fill-opacity="1" fill-rule="nonzero"/><path fill="#000000" d="M 91.167969 102.257812 L 95.960938 102.257812 L 95.960938 105.5 L 91.167969 105.5 Z M 91.167969 102.257812 " fill-opacity="1" fill-rule="nonzero"/><path fill="#000000" d="M 65.105469 55.773438 L 69.898438 55.773438 L 69.898438 59.011719 L 65.105469 59.011719 Z M 65.105469 55.773438 " fill-opacity="1" fill-rule="nonzero"/><path fill="#000000" d="M 72 102.257812 L 76.792969 102.257812 L 76.792969 105.5 L 72 105.5 Z M 72 102.257812 " fill-opacity="1" fill-rule="nonzero"/><path fill="#000000" d="M 74.691406 55.773438 L 79.484375 55.773438 L 79.484375 59.011719 L 74.691406 59.011719 Z M 74.691406 55.773438 " fill-opacity="1" fill-rule="nonzero"/><g clip-path="url(#adb6a63738)"><path fill="#000000" d="M 235.492188 118.628906 L 219.761719 103.8125 L 219.761719 102.257812 L 218.113281 102.257812 L 204.644531 89.570312 L 139.839844 89.570312 L 139.839844 102.257812 L 139.101562 102.257812 L 139.101562 105.5 L 139.839844 105.5 L 139.839844 143.84375 L 107.882812 143.84375 L 93.761719 123.628906 L 41.300781 123.628906 C 40.871094 123.632812 40.441406 123.679688 40.019531 123.765625 C 39.597656 123.851562 39.1875 123.980469 38.789062 124.148438 C 38.394531 124.316406 38.015625 124.523438 37.660156 124.765625 C 37.300781 125.007812 36.972656 125.285156 36.667969 125.589844 C 36.367188 125.898438 36.097656 126.234375 35.859375 126.59375 C 35.621094 126.953125 35.421875 127.335938 35.261719 127.734375 C 35.097656 128.132812 34.976562 128.546875 34.894531 128.96875 C 34.816406 129.394531 34.777344 129.820312 34.777344 130.253906 L 34.777344 253.433594 C 34.769531 253.589844 34.769531 253.742188 34.777344 253.898438 L 34.777344 255.097656 L 34.941406 255.097656 C 35.148438 255.902344 35.507812 256.636719 36.011719 257.292969 C 36.585938 258.046875 37.292969 258.632812 38.140625 259.050781 C 38.992188 259.46875 39.886719 259.675781 40.832031 259.671875 L 167.296875 259.671875 C 167.953125 259.671875 168.59375 259.566406 169.21875 259.359375 C 169.839844 259.148438 170.414062 258.847656 170.9375 258.449219 C 171.464844 258.050781 171.910156 257.582031 172.28125 257.039062 C 172.652344 256.496094 172.925781 255.90625 173.105469 255.273438 L 186.71875 217.941406 L 235.492188 217.941406 L 235.492188 155.34375 L 236.234375 155.34375 L 236.234375 152.105469 L 235.492188 152.105469 Z M 227.003906 115.59375 L 207.746094 115.59375 L 207.746094 97.457031 Z M 41.300781 126.871094 L 92.082031 126.871094 L 106.210938 147.085938 L 139.851562 147.085938 L 139.851562 168.839844 L 69.558594 168.839844 C 68.898438 168.839844 68.257812 168.945312 67.636719 169.15625 C 67.011719 169.367188 66.4375 169.667969 65.910156 170.066406 C 65.386719 170.460938 64.9375 170.933594 64.566406 171.472656 C 64.195312 172.015625 63.917969 172.605469 63.738281 173.238281 L 38.03125 243.726562 L 38.03125 130.253906 C 38.023438 129.8125 38.101562 129.386719 38.265625 128.976562 C 38.425781 128.566406 38.660156 128.203125 38.96875 127.886719 C 39.273438 127.570312 39.628906 127.324219 40.035156 127.148438 C 40.4375 126.972656 40.859375 126.878906 41.300781 126.871094 Z M 170.035156 254.234375 L 169.992188 254.371094 C 169.914062 254.667969 169.785156 254.945312 169.617188 255.199219 C 169.445312 255.457031 169.238281 255.675781 168.996094 255.863281 C 168.75 256.050781 168.484375 256.191406 168.191406 256.289062 C 167.902344 256.386719 167.601562 256.4375 167.296875 256.4375 L 40.832031 256.4375 C 40.457031 256.4375 40.097656 256.363281 39.75 256.21875 C 39.402344 256.070312 39.097656 255.867188 38.835938 255.597656 C 38.570312 255.332031 38.367188 255.023438 38.226562 254.675781 C 38.085938 254.324219 38.015625 253.964844 38.019531 253.589844 L 38.019531 253.554688 C 38.027344 253.355469 38.054688 253.15625 38.101562 252.960938 L 66.800781 174.292969 L 66.84375 174.160156 C 66.925781 173.863281 67.054688 173.585938 67.226562 173.332031 C 67.398438 173.074219 67.605469 172.855469 67.851562 172.667969 C 68.097656 172.480469 68.363281 172.335938 68.65625 172.238281 C 68.949219 172.136719 69.25 172.089844 69.558594 172.089844 L 196.019531 172.089844 C 198.28125 172.089844 198.605469 174.839844 198.652344 175.773438 Z M 232.25 214.710938 L 187.898438 214.710938 L 201.800781 176.589844 L 201.902344 176.324219 L 201.902344 176.035156 C 201.902344 171.800781 199.492188 168.839844 196.011719 168.839844 L 143.097656 168.839844 L 143.097656 92.8125 L 203.347656 92.8125 L 204.492188 93.882812 L 204.492188 118.828125 L 230.976562 118.828125 L 232.242188 120.019531 Z M 232.25 214.710938 " fill-opacity="1" fill-rule="nonzero"/></g><path fill="#000000" d="M 180.136719 180.746094 L 79.53125 180.746094 C 78.976562 180.746094 78.433594 180.835938 77.90625 181.011719 C 77.378906 181.1875 76.890625 181.441406 76.445312 181.773438 C 76 182.109375 75.621094 182.503906 75.304688 182.960938 C 74.984375 183.417969 74.75 183.914062 74.59375 184.445312 L 66.230469 205.484375 L 66.171875 205.65625 C 66.070312 206.039062 66.011719 206.425781 66 206.820312 C 65.988281 207.214844 66.019531 207.605469 66.09375 207.996094 C 66.171875 208.382812 66.292969 208.753906 66.453125 209.113281 C 66.617188 209.476562 66.816406 209.8125 67.058594 210.125 C 67.296875 210.4375 67.570312 210.71875 67.875 210.96875 C 68.179688 211.222656 68.511719 211.433594 68.863281 211.609375 C 69.21875 211.785156 69.585938 211.914062 69.972656 212.007812 C 70.355469 212.097656 70.746094 212.140625 71.140625 212.140625 L 171.746094 212.140625 C 172.300781 212.140625 172.84375 212.054688 173.371094 211.878906 C 173.898438 211.703125 174.386719 211.445312 174.832031 211.113281 C 175.273438 210.777344 175.65625 210.382812 175.972656 209.921875 C 176.285156 209.464844 176.523438 208.96875 176.675781 208.433594 L 185.148438 187.113281 L 185.148438 186.800781 C 185.148438 183.234375 183.085938 180.746094 180.136719 180.746094 Z M 173.632812 207.316406 L 173.574219 207.503906 C 173.464844 207.917969 173.238281 208.253906 172.898438 208.511719 C 172.558594 208.773438 172.175781 208.902344 171.746094 208.898438 L 71.140625 208.898438 C 70.851562 208.898438 70.578125 208.832031 70.320312 208.707031 C 70.058594 208.582031 69.839844 208.410156 69.660156 208.183594 C 69.476562 207.957031 69.355469 207.707031 69.289062 207.425781 C 69.222656 207.144531 69.222656 206.863281 69.28125 206.582031 L 77.625 185.566406 L 77.683594 185.390625 C 77.796875 184.976562 78.023438 184.640625 78.363281 184.378906 C 78.707031 184.117188 79.09375 183.988281 79.523438 183.988281 L 180.136719 183.988281 C 181.585938 183.988281 181.847656 185.777344 181.894531 186.515625 Z M 173.632812 207.316406 " fill-opacity="1" fill-rule="nonzero"/><path fill="#000000" d="M 209.789062 56.488281 C 209.789062 57.351562 209.707031 58.203125 209.539062 59.050781 C 209.371094 59.894531 209.121094 60.714844 208.789062 61.511719 C 208.460938 62.308594 208.054688 63.066406 207.578125 63.785156 C 207.097656 64.5 206.554688 65.164062 205.945312 65.773438 C 205.332031 66.382812 204.671875 66.925781 203.953125 67.40625 C 203.238281 67.886719 202.480469 68.289062 201.683594 68.621094 C 200.886719 68.949219 200.066406 69.199219 199.21875 69.367188 C 198.375 69.535156 197.519531 69.621094 196.65625 69.621094 C 195.796875 69.621094 194.941406 69.535156 194.097656 69.367188 C 193.25 69.199219 192.429688 68.949219 191.632812 68.621094 C 190.835938 68.289062 190.078125 67.886719 189.363281 67.40625 C 188.644531 66.925781 187.980469 66.382812 187.371094 65.773438 C 186.761719 65.164062 186.21875 64.5 185.738281 63.785156 C 185.261719 63.066406 184.855469 62.308594 184.527344 61.511719 C 184.195312 60.714844 183.945312 59.894531 183.777344 59.050781 C 183.609375 58.203125 183.527344 57.351562 183.527344 56.488281 C 183.527344 55.625 183.609375 54.769531 183.777344 53.925781 C 183.945312 53.078125 184.195312 52.257812 184.527344 51.460938 C 184.855469 50.664062 185.261719 49.910156 185.738281 49.191406 C 186.21875 48.476562 186.761719 47.8125 187.371094 47.203125 C 187.980469 46.59375 188.644531 46.046875 189.363281 45.570312 C 190.078125 45.089844 190.835938 44.683594 191.632812 44.355469 C 192.429688 44.023438 193.25 43.777344 194.097656 43.609375 C 194.941406 43.441406 195.796875 43.355469 196.65625 43.355469 C 197.519531 43.355469 198.375 43.441406 199.21875 43.609375 C 200.066406 43.777344 200.886719 44.023438 201.683594 44.355469 C 202.480469 44.683594 203.238281 45.089844 203.953125 45.570312 C 204.671875 46.046875 205.332031 46.59375 205.945312 47.203125 C 206.554688 47.8125 207.097656 48.476562 207.578125 49.191406 C 208.054688 49.910156 208.460938 50.664062 208.789062 51.460938 C 209.121094 52.257812 209.371094 53.078125 209.539062 53.925781 C 209.707031 54.769531 209.789062 55.625 209.789062 56.488281 Z M 209.789062 56.488281 " fill-opacity="1" fill-rule="nonzero"/><path fill="#000000" d="M 97.253906 103.085938 C 97.253906 103.945312 97.171875 104.800781 97.003906 105.644531 C 96.835938 106.492188 96.585938 107.3125 96.253906 108.109375 C 95.925781 108.90625 95.519531 109.664062 95.042969 110.378906 C 94.5625 111.097656 94.019531 111.761719 93.410156 112.371094 C 92.796875 112.980469 92.136719 113.523438 91.417969 114.003906 C 90.703125 114.480469 89.945312 114.886719 89.148438 115.214844 C 88.351562 115.546875 87.53125 115.796875 86.683594 115.964844 C 85.839844 116.132812 84.984375 116.214844 84.121094 116.214844 C 83.261719 116.214844 82.40625 116.132812 81.5625 115.964844 C 80.714844 115.796875 79.894531 115.546875 79.097656 115.214844 C 78.300781 114.886719 77.542969 114.480469 76.828125 114.003906 C 76.109375 113.523438 75.445312 112.980469 74.835938 112.371094 C 74.226562 111.761719 73.683594 111.097656 73.203125 110.378906 C 72.726562 109.664062 72.320312 108.90625 71.992188 108.109375 C 71.660156 107.3125 71.410156 106.492188 71.242188 105.644531 C 71.074219 104.800781 70.992188 103.945312 70.992188 103.085938 C 70.992188 102.222656 71.074219 101.367188 71.242188 100.523438 C 71.410156 99.675781 71.660156 98.855469 71.992188 98.058594 C 72.320312 97.261719 72.726562 96.503906 73.203125 95.789062 C 73.683594 95.070312 74.226562 94.410156 74.835938 93.796875 C 75.445312 93.1875 76.109375 92.644531 76.828125 92.164062 C 77.542969 91.6875 78.300781 91.28125 79.097656 90.953125 C 79.894531 90.621094 80.714844 90.371094 81.5625 90.203125 C 82.40625 90.035156 83.261719 89.953125 84.121094 89.953125 C 84.984375 89.953125 85.839844 90.035156 86.683594 90.203125 C 87.53125 90.371094 88.351562 90.621094 89.148438 90.953125 C 89.945312 91.28125 90.703125 91.6875 91.417969 92.164062 C 92.136719 92.644531 92.796875 93.1875 93.410156 93.796875 C 94.019531 94.410156 94.5625 95.070312 95.042969 95.789062 C 95.519531 96.503906 95.925781 97.261719 96.253906 98.058594 C 96.585938 98.855469 96.835938 99.675781 97.003906 100.523438 C 97.171875 101.367188 97.253906 102.222656 97.253906 103.085938 Z M 97.253906 103.085938 " fill-opacity="1" fill-rule="nonzero"/><path fill="#000000" d="M 135.441406 56.488281 C 135.441406 57.113281 135.410156 57.738281 135.347656 58.359375 C 135.289062 58.980469 135.195312 59.597656 135.074219 60.210938 C 134.953125 60.824219 134.800781 61.429688 134.617188 62.03125 C 134.4375 62.628906 134.226562 63.214844 133.988281 63.792969 C 133.746094 64.371094 133.480469 64.9375 133.1875 65.488281 C 132.890625 66.039062 132.570312 66.574219 132.222656 67.09375 C 131.875 67.613281 131.503906 68.117188 131.105469 68.601562 C 130.710938 69.082031 130.289062 69.546875 129.847656 69.988281 C 129.40625 70.429688 128.941406 70.851562 128.460938 71.246094 C 127.976562 71.644531 127.476562 72.015625 126.953125 72.363281 C 126.433594 72.710938 125.898438 73.03125 125.347656 73.324219 C 124.796875 73.621094 124.230469 73.886719 123.652344 74.128906 C 123.078125 74.367188 122.488281 74.578125 121.890625 74.757812 C 121.292969 74.941406 120.6875 75.089844 120.074219 75.214844 C 119.460938 75.335938 118.839844 75.425781 118.21875 75.488281 C 117.597656 75.550781 116.972656 75.582031 116.347656 75.582031 C 115.722656 75.582031 115.097656 75.550781 114.476562 75.488281 C 113.855469 75.425781 113.234375 75.335938 112.621094 75.214844 C 112.007812 75.089844 111.402344 74.941406 110.804688 74.757812 C 110.207031 74.578125 109.617188 74.367188 109.039062 74.128906 C 108.464844 73.886719 107.898438 73.621094 107.347656 73.324219 C 106.796875 73.03125 106.261719 72.710938 105.738281 72.363281 C 105.21875 72.015625 104.71875 71.644531 104.234375 71.246094 C 103.75 70.851562 103.289062 70.429688 102.847656 69.988281 C 102.40625 69.546875 101.984375 69.082031 101.589844 68.601562 C 101.191406 68.117188 100.820312 67.613281 100.472656 67.09375 C 100.125 66.574219 99.804688 66.039062 99.507812 65.488281 C 99.214844 64.9375 98.949219 64.371094 98.707031 63.792969 C 98.46875 63.214844 98.257812 62.628906 98.078125 62.03125 C 97.894531 61.429688 97.742188 60.824219 97.621094 60.210938 C 97.5 59.597656 97.40625 58.980469 97.347656 58.359375 C 97.285156 57.738281 97.253906 57.113281 97.253906 56.488281 C 97.253906 55.863281 97.285156 55.238281 97.347656 54.617188 C 97.40625 53.992188 97.5 53.375 97.621094 52.761719 C 97.742188 52.148438 97.894531 51.542969 98.078125 50.945312 C 98.257812 50.347656 98.46875 49.757812 98.707031 49.179688 C 98.949219 48.601562 99.214844 48.039062 99.507812 47.488281 C 99.804688 46.9375 100.125 46.398438 100.472656 45.878906 C 100.820312 45.359375 101.191406 44.859375 101.589844 44.375 C 101.984375 43.890625 102.40625 43.429688 102.847656 42.988281 C 103.289062 42.542969 103.75 42.125 104.234375 41.730469 C 104.71875 41.332031 105.21875 40.960938 105.738281 40.613281 C 106.261719 40.265625 106.796875 39.945312 107.347656 39.648438 C 107.898438 39.355469 108.464844 39.085938 109.039062 38.847656 C 109.617188 38.609375 110.207031 38.398438 110.804688 38.21875 C 111.402344 38.035156 112.007812 37.882812 112.621094 37.761719 C 113.234375 37.640625 113.855469 37.546875 114.476562 37.488281 C 115.097656 37.425781 115.722656 37.394531 116.347656 37.394531 C 116.972656 37.394531 117.597656 37.425781 118.21875 37.488281 C 118.839844 37.546875 119.460938 37.640625 120.074219 37.761719 C 120.6875 37.882812 121.292969 38.035156 121.890625 38.21875 C 122.488281 38.398438 123.078125 38.609375 123.652344 38.847656 C 124.230469 39.085938 124.796875 39.355469 125.347656 39.648438 C 125.898438 39.945312 126.433594 40.265625 126.953125 40.613281 C 127.476562 40.960938 127.976562 41.332031 128.460938 41.730469 C 128.941406 42.125 129.40625 42.542969 129.847656 42.988281 C 130.289062 43.429688 130.710938 43.890625 131.105469 44.375 C 131.503906 44.859375 131.875 45.359375 132.222656 45.878906 C 132.570312 46.398438 132.890625 46.9375 133.1875 47.488281 C 133.480469 48.039062 133.746094 48.601562 133.988281 49.179688 C 134.226562 49.757812 134.4375 50.347656 134.617188 50.945312 C 134.800781 51.542969 134.953125 52.148438 135.074219 52.761719 C 135.195312 53.375 135.289062 53.992188 135.347656 54.617188 C 135.410156 55.238281 135.441406 55.863281 135.441406 56.488281 Z M 135.441406 56.488281 " fill-opacity="1" fill-rule="nonzero"/></svg>