<svg xmlns="http://www.w3.org/2000/svg" xmlns:xlink="http://www.w3.org/1999/xlink" width="500" zoomAndPan="magnify" viewBox="0 0 375 374.999991" height="500" preserveAspectRatio="xMidYMid meet" version="1.0"><defs><clipPath id="1bce37f632"><path d="M 22.4375 67 L 342.6875 67 L 342.6875 305 L 22.4375 305 Z M 22.4375 67 " clip-rule="nonzero"/></clipPath></defs><path fill="#000000" d="M 102.136719 222.988281 L 102.136719 223.246094 L 122.917969 231.992188 L 122.917969 243.660156 L 91.054688 227.914062 L 91.054688 218.03125 L 122.917969 202.34375 L 122.917969 213.988281 Z M 102.136719 222.988281 " fill-opacity="1" fill-rule="nonzero"/><path fill="#000000" d="M 160.550781 251.835938 L 151.738281 251.835938 L 170.351562 183.722656 L 179.210938 183.722656 Z M 160.550781 251.835938 " fill-opacity="1" fill-rule="nonzero"/><path fill="#000000" d="M 228.171875 223.117188 L 228.171875 222.855469 L 207.1875 213.988281 L 207.1875 202.34375 L 239.289062 218.03125 L 239.289062 227.945312 L 207.1875 243.695312 L 207.1875 232.078125 Z M 228.171875 223.117188 " fill-opacity="1" fill-rule="nonzero"/><path fill="#000000" d="M 42.601562 278.71875 L 280.71875 278.71875 L 280.71875 136.902344 L 42.601562 136.902344 Z M 45.792969 140.082031 L 277.527344 140.082031 L 277.527344 157.835938 L 45.792969 157.835938 Z M 45.792969 161.027344 L 277.527344 161.027344 L 277.527344 275.539062 L 45.792969 275.539062 Z M 45.792969 161.027344 " fill-opacity="1" fill-rule="nonzero"/><path fill="#000000" d="M 56.5625 142.617188 C 56.179688 142.617188 55.800781 142.65625 55.425781 142.730469 C 55.050781 142.804688 54.6875 142.917969 54.332031 143.0625 C 53.980469 143.210938 53.644531 143.386719 53.324219 143.601562 C 53.007812 143.8125 52.710938 144.054688 52.441406 144.328125 C 52.171875 144.597656 51.929688 144.890625 51.714844 145.210938 C 51.503906 145.527344 51.324219 145.863281 51.179688 146.21875 C 51.03125 146.570312 50.921875 146.9375 50.847656 147.3125 C 50.769531 147.6875 50.734375 148.066406 50.734375 148.449219 C 50.734375 148.832031 50.769531 149.210938 50.847656 149.585938 C 50.921875 149.960938 51.03125 150.324219 51.179688 150.679688 C 51.324219 151.03125 51.503906 151.367188 51.714844 151.6875 C 51.929688 152.003906 52.171875 152.300781 52.441406 152.570312 C 52.710938 152.839844 53.007812 153.082031 53.324219 153.296875 C 53.644531 153.507812 53.980469 153.6875 54.332031 153.832031 C 54.6875 153.980469 55.050781 154.089844 55.425781 154.164062 C 55.800781 154.242188 56.179688 154.277344 56.5625 154.277344 C 56.945312 154.277344 57.324219 154.242188 57.699219 154.164062 C 58.074219 154.089844 58.441406 153.980469 58.792969 153.832031 C 59.148438 153.6875 59.484375 153.507812 59.800781 153.296875 C 60.121094 153.082031 60.414062 152.839844 60.683594 152.570312 C 60.957031 152.300781 61.199219 152.003906 61.410156 151.6875 C 61.625 151.367188 61.800781 151.03125 61.949219 150.679688 C 62.09375 150.324219 62.207031 149.960938 62.28125 149.585938 C 62.355469 149.210938 62.394531 148.832031 62.394531 148.449219 C 62.390625 148.066406 62.355469 147.6875 62.28125 147.3125 C 62.203125 146.9375 62.09375 146.570312 61.945312 146.21875 C 61.800781 145.863281 61.621094 145.53125 61.40625 145.210938 C 61.195312 144.894531 60.953125 144.597656 60.683594 144.328125 C 60.414062 144.058594 60.117188 143.816406 59.800781 143.605469 C 59.480469 143.390625 59.148438 143.210938 58.792969 143.066406 C 58.441406 142.917969 58.074219 142.808594 57.699219 142.730469 C 57.324219 142.65625 56.945312 142.621094 56.5625 142.617188 Z M 56.5625 151.085938 C 56.214844 151.085938 55.878906 151.019531 55.554688 150.886719 C 55.234375 150.753906 54.949219 150.5625 54.699219 150.316406 C 54.453125 150.066406 54.261719 149.78125 54.128906 149.460938 C 53.996094 149.136719 53.929688 148.800781 53.929688 148.453125 C 53.929688 148.101562 53.996094 147.765625 54.128906 147.445312 C 54.261719 147.121094 54.453125 146.835938 54.699219 146.589844 C 54.949219 146.34375 55.234375 146.152344 55.554688 146.019531 C 55.878906 145.882812 56.214844 145.816406 56.5625 145.816406 C 56.914062 145.816406 57.25 145.882812 57.570312 146.019531 C 57.894531 146.152344 58.179688 146.34375 58.425781 146.589844 C 58.671875 146.835938 58.863281 147.121094 58.996094 147.445312 C 59.132812 147.765625 59.199219 148.101562 59.199219 148.453125 C 59.199219 148.800781 59.132812 149.136719 58.996094 149.460938 C 58.863281 149.78125 58.671875 150.066406 58.425781 150.316406 C 58.179688 150.5625 57.894531 150.753906 57.570312 150.886719 C 57.25 151.019531 56.914062 151.085938 56.5625 151.085938 Z M 56.5625 151.085938 " fill-opacity="1" fill-rule="nonzero"/><path fill="#000000" d="M 70.230469 142.617188 C 69.847656 142.617188 69.46875 142.65625 69.09375 142.730469 C 68.71875 142.804688 68.355469 142.914062 68 143.0625 C 67.648438 143.207031 67.3125 143.386719 66.992188 143.597656 C 66.671875 143.8125 66.378906 144.054688 66.109375 144.324219 C 65.835938 144.59375 65.59375 144.890625 65.382812 145.207031 C 65.171875 145.523438 64.988281 145.859375 64.84375 146.214844 C 64.695312 146.570312 64.585938 146.933594 64.511719 147.308594 C 64.4375 147.683594 64.398438 148.0625 64.398438 148.445312 C 64.398438 148.828125 64.4375 149.207031 64.511719 149.582031 C 64.585938 149.957031 64.695312 150.324219 64.839844 150.675781 C 64.988281 151.03125 65.167969 151.367188 65.378906 151.683594 C 65.59375 152.003906 65.835938 152.296875 66.105469 152.570312 C 66.375 152.839844 66.667969 153.082031 66.988281 153.292969 C 67.304688 153.507812 67.640625 153.6875 67.996094 153.832031 C 68.347656 153.980469 68.714844 154.089844 69.089844 154.164062 C 69.464844 154.238281 69.84375 154.277344 70.226562 154.277344 C 70.609375 154.277344 70.988281 154.242188 71.363281 154.164062 C 71.738281 154.089844 72.105469 153.980469 72.457031 153.835938 C 72.8125 153.6875 73.148438 153.507812 73.464844 153.296875 C 73.785156 153.082031 74.078125 152.839844 74.347656 152.570312 C 74.621094 152.300781 74.863281 152.003906 75.074219 151.6875 C 75.289062 151.367188 75.46875 151.03125 75.613281 150.679688 C 75.761719 150.324219 75.871094 149.960938 75.945312 149.585938 C 76.019531 149.210938 76.058594 148.832031 76.058594 148.449219 C 76.058594 148.066406 76.019531 147.6875 75.945312 147.3125 C 75.871094 146.9375 75.757812 146.574219 75.613281 146.21875 C 75.464844 145.867188 75.285156 145.53125 75.074219 145.210938 C 74.859375 144.894531 74.621094 144.601562 74.347656 144.328125 C 74.078125 144.058594 73.785156 143.816406 73.46875 143.605469 C 73.148438 143.390625 72.8125 143.210938 72.460938 143.066406 C 72.105469 142.917969 71.742188 142.808594 71.367188 142.734375 C 70.992188 142.65625 70.613281 142.621094 70.230469 142.617188 Z M 70.230469 151.085938 C 69.882812 151.085938 69.546875 151.019531 69.222656 150.886719 C 68.902344 150.753906 68.617188 150.5625 68.367188 150.316406 C 68.121094 150.066406 67.933594 149.78125 67.796875 149.460938 C 67.664062 149.136719 67.597656 148.800781 67.597656 148.453125 C 67.597656 148.101562 67.664062 147.765625 67.796875 147.445312 C 67.933594 147.121094 68.121094 146.835938 68.367188 146.589844 C 68.617188 146.34375 68.902344 146.152344 69.222656 146.019531 C 69.546875 145.882812 69.882812 145.816406 70.230469 145.816406 C 70.582031 145.816406 70.917969 145.882812 71.238281 146.019531 C 71.5625 146.152344 71.847656 146.34375 72.09375 146.589844 C 72.339844 146.835938 72.53125 147.121094 72.664062 147.445312 C 72.800781 147.765625 72.867188 148.101562 72.867188 148.453125 C 72.867188 148.800781 72.800781 149.136719 72.664062 149.460938 C 72.53125 149.78125 72.339844 150.066406 72.09375 150.316406 C 71.847656 150.5625 71.5625 150.753906 71.238281 150.886719 C 70.917969 151.019531 70.582031 151.085938 70.230469 151.085938 Z M 70.230469 151.085938 " fill-opacity="1" fill-rule="nonzero"/><g clip-path="url(#1bce37f632)"><path fill="#000000" d="M 332.785156 132.703125 L 342.464844 128.78125 L 342.390625 127.628906 C 342.152344 124.160156 341.695312 120.722656 341.015625 117.3125 L 340.789062 116.183594 L 330.464844 114.804688 L 326.890625 105.949219 L 333.285156 97.703125 L 332.707031 96.761719 C 330.882812 93.792969 328.800781 91.015625 326.457031 88.433594 L 325.703125 87.609375 L 316.082031 91.503906 L 308.554688 85.660156 L 309.917969 75.464844 L 308.410156 74.464844 L 308.195312 74.347656 C 305.285156 73 302.273438 71.613281 299.230469 70.675781 L 298.179688 70.351562 L 291.78125 78.582031 L 282.371094 77.265625 L 278.464844 67.382812 L 277.308594 67.460938 C 273.921875 67.683594 270.457031 67.917969 266.984375 68.589844 L 265.855469 68.8125 L 264.480469 79.152344 L 255.386719 82.960938 L 247.15625 76.5625 L 246.214844 77.144531 C 243.25 78.972656 240.480469 81.058594 237.902344 83.402344 L 237.078125 84.15625 L 240.011719 91.40625 L 239.800781 91.40625 L 239.800781 95.054688 L 239.984375 95.054688 L 235.128906 101.316406 L 224.832031 99.941406 L 224.308594 100.914062 C 222.648438 104.027344 221.269531 107.257812 220.167969 110.609375 L 219.792969 111.675781 L 228.050781 118.097656 L 227.625 121.125 L 134.671875 121.125 L 134.671875 120.066406 L 131.023438 120.066406 L 131.023438 121.125 L 48.75 121.125 C 47.714844 121.128906 46.683594 121.234375 45.667969 121.4375 C 44.648438 121.640625 43.660156 121.941406 42.703125 122.339844 C 41.746094 122.742188 40.835938 123.226562 39.972656 123.804688 C 39.109375 124.382812 38.3125 125.039062 37.578125 125.773438 C 36.84375 126.507812 36.191406 127.308594 35.613281 128.171875 C 35.039062 129.03125 34.550781 129.945312 34.152344 130.902344 C 33.753906 131.863281 33.453125 132.851562 33.25 133.867188 C 33.046875 134.886719 32.945312 135.914062 32.945312 136.953125 L 32.945312 285.660156 L 22.4375 285.660156 L 22.4375 296.8125 C 22.4375 301.375 29.242188 304.808594 38.261719 304.808594 L 286.402344 304.808594 C 295.433594 304.808594 302.226562 301.375 302.226562 296.8125 L 302.226562 285.660156 L 291.734375 285.660156 L 291.734375 253.675781 L 292.792969 253.675781 L 292.792969 250.027344 L 291.734375 250.027344 L 291.734375 191.320312 C 292.039062 191.25 292.347656 191.175781 292.65625 191.09375 L 293.683594 190.820312 L 295.054688 180.570312 L 303.90625 176.992188 L 312.144531 183.390625 L 313.085938 182.8125 C 316.058594 180.988281 318.835938 178.902344 321.417969 176.558594 L 322.238281 175.808594 L 318.347656 166.195312 L 324.1875 158.667969 L 334.484375 160.039062 L 335.007812 159.070312 C 336.664062 155.960938 338.042969 152.726562 339.144531 149.378906 L 339.523438 148.308594 L 331.285156 141.910156 Z M 36.117188 136.929688 C 36.117188 136.097656 36.199219 135.277344 36.363281 134.464844 C 36.523438 133.652344 36.765625 132.863281 37.082031 132.097656 C 37.402344 131.332031 37.789062 130.601562 38.25 129.914062 C 38.710938 129.222656 39.234375 128.585938 39.820312 128 C 40.410156 127.414062 41.046875 126.890625 41.734375 126.429688 C 42.425781 125.96875 43.152344 125.578125 43.917969 125.261719 C 44.683594 124.941406 45.472656 124.703125 46.289062 124.539062 C 47.101562 124.378906 47.921875 124.296875 48.75 124.296875 L 275.90625 124.296875 C 276.738281 124.296875 277.558594 124.375 278.371094 124.539062 C 279.1875 124.699219 279.976562 124.941406 280.742188 125.257812 C 281.507812 125.574219 282.238281 125.964844 282.925781 126.425781 C 283.617188 126.886719 284.253906 127.410156 284.84375 127.996094 C 285.429688 128.582031 285.953125 129.21875 286.414062 129.910156 C 286.875 130.597656 287.265625 131.328125 287.582031 132.09375 C 287.898438 132.859375 288.140625 133.648438 288.300781 134.464844 C 288.464844 135.277344 288.542969 136.097656 288.542969 136.929688 L 288.542969 285.660156 L 36.117188 285.660156 Z M 299.039062 288.851562 L 299.039062 296.8125 C 299.039062 298.820312 294.234375 301.617188 286.40625 301.617188 L 38.261719 301.617188 C 30.433594 301.617188 25.628906 298.820312 25.628906 296.8125 L 25.628906 288.851562 Z M 287.097656 125.738281 C 285.617188 124.25 283.90625 123.101562 281.96875 122.300781 C 280.027344 121.496094 278.007812 121.097656 275.90625 121.105469 L 247.832031 121.105469 C 248.023438 120.421875 248.230469 119.75 248.464844 119.082031 C 248.695312 118.414062 248.949219 117.753906 249.222656 117.105469 C 249.496094 116.453125 249.789062 115.8125 250.105469 115.179688 C 250.417969 114.546875 250.753906 113.925781 251.105469 113.3125 C 251.460938 112.703125 251.835938 112.101562 252.226562 111.515625 C 252.621094 110.925781 253.03125 110.351562 253.457031 109.792969 C 253.886719 109.230469 254.335938 108.683594 254.796875 108.152344 C 255.261719 107.617188 255.742188 107.101562 256.238281 106.597656 C 256.734375 106.097656 257.25 105.609375 257.777344 105.140625 C 258.304688 104.671875 258.847656 104.21875 259.402344 103.785156 C 259.960938 103.347656 260.527344 102.933594 261.113281 102.535156 C 261.695312 102.136719 262.289062 101.753906 262.898438 101.394531 C 263.503906 101.035156 264.125 100.691406 264.753906 100.371094 C 265.382812 100.050781 266.019531 99.75 266.667969 99.46875 C 267.316406 99.1875 267.972656 98.929688 268.636719 98.691406 C 269.304688 98.449219 269.976562 98.234375 270.652344 98.039062 C 271.332031 97.839844 272.015625 97.667969 272.707031 97.515625 C 273.394531 97.363281 274.089844 97.234375 274.789062 97.125 C 275.484375 97.015625 276.1875 96.929688 276.890625 96.867188 C 277.59375 96.804688 278.300781 96.761719 279.003906 96.742188 C 279.710938 96.726562 280.417969 96.730469 281.125 96.757812 C 281.828125 96.78125 282.535156 96.832031 283.234375 96.902344 C 283.9375 96.972656 284.640625 97.066406 285.335938 97.183594 C 286.03125 97.300781 286.726562 97.4375 287.414062 97.597656 C 288.101562 97.757812 288.785156 97.941406 289.460938 98.144531 C 290.136719 98.347656 290.804688 98.570312 291.46875 98.816406 C 292.128906 99.0625 292.78125 99.332031 293.429688 99.617188 C 294.074219 99.90625 294.707031 100.214844 295.335938 100.542969 C 295.960938 100.871094 296.574219 101.21875 297.175781 101.585938 C 297.78125 101.953125 298.371094 102.339844 298.949219 102.746094 C 299.527344 103.152344 300.09375 103.574219 300.644531 104.015625 C 301.199219 104.457031 301.734375 104.914062 302.257812 105.390625 C 302.78125 105.867188 303.285156 106.355469 303.777344 106.863281 C 304.269531 107.371094 304.742188 107.894531 305.199219 108.433594 C 305.660156 108.972656 306.097656 109.523438 306.523438 110.089844 C 306.945312 110.65625 307.347656 111.234375 307.734375 111.824219 C 308.121094 112.417969 308.488281 113.019531 308.832031 113.636719 C 309.179688 114.25 309.507812 114.878906 309.816406 115.511719 C 310.125 116.148438 310.410156 116.792969 310.675781 117.449219 C 310.941406 118.101562 311.1875 118.765625 311.414062 119.433594 C 311.636719 120.105469 311.839844 120.78125 312.019531 121.464844 C 312.199219 122.148438 312.359375 122.835938 312.496094 123.527344 C 312.632812 124.21875 312.75 124.917969 312.84375 125.617188 C 312.933594 126.316406 313.003906 127.019531 313.054688 127.726562 C 313.101562 128.429688 313.128906 129.136719 313.128906 129.839844 C 313.132812 130.546875 313.113281 131.253906 313.070312 131.960938 C 313.03125 132.664062 312.964844 133.367188 312.878906 134.070312 C 312.792969 134.769531 312.683594 135.46875 312.550781 136.160156 C 312.421875 136.855469 312.265625 137.542969 312.09375 138.230469 C 311.917969 138.914062 311.71875 139.589844 311.503906 140.261719 C 311.285156 140.933594 311.042969 141.597656 310.785156 142.253906 C 310.523438 142.914062 310.242188 143.558594 309.941406 144.199219 C 309.636719 144.835938 309.316406 145.464844 308.972656 146.082031 C 308.632812 146.703125 308.269531 147.308594 307.890625 147.902344 C 307.507812 148.5 307.109375 149.082031 306.691406 149.648438 C 306.273438 150.21875 305.839844 150.777344 305.386719 151.316406 C 304.933594 151.859375 304.460938 152.386719 303.976562 152.898438 C 303.488281 153.410156 302.988281 153.90625 302.46875 154.386719 C 301.949219 154.867188 301.417969 155.328125 300.867188 155.773438 C 300.320312 156.222656 299.757812 156.648438 299.183594 157.058594 C 298.609375 157.46875 298.023438 157.859375 297.421875 158.234375 C 296.820312 158.605469 296.210938 158.960938 295.585938 159.292969 C 294.964844 159.625 294.332031 159.941406 293.691406 160.234375 C 293.046875 160.527344 292.394531 160.800781 291.734375 161.050781 L 291.734375 136.929688 C 291.742188 134.828125 291.339844 132.808594 290.539062 130.867188 C 289.734375 128.929688 288.589844 127.21875 287.097656 125.738281 Z M 335.769531 149.410156 C 334.910156 151.863281 333.890625 154.246094 332.710938 156.5625 L 322.789062 155.242188 L 314.699219 165.683594 L 318.441406 174.929688 C 316.519531 176.601562 314.488281 178.121094 312.347656 179.5 L 304.410156 173.324219 L 292.136719 178.292969 L 291.734375 181.300781 L 291.734375 164.441406 C 292.476562 164.1875 293.210938 163.90625 293.9375 163.605469 C 294.660156 163.300781 295.375 162.976562 296.078125 162.628906 C 296.78125 162.277344 297.472656 161.90625 298.152344 161.515625 C 298.832031 161.121094 299.496094 160.703125 300.148438 160.269531 C 300.800781 159.832031 301.441406 159.375 302.0625 158.898438 C 302.6875 158.417969 303.292969 157.921875 303.882812 157.402344 C 304.476562 156.886719 305.046875 156.351562 305.605469 155.796875 C 306.160156 155.242188 306.699219 154.671875 307.21875 154.082031 C 307.738281 153.492188 308.238281 152.890625 308.71875 152.265625 C 309.199219 151.644531 309.65625 151.011719 310.097656 150.359375 C 310.535156 149.707031 310.953125 149.042969 311.347656 148.367188 C 311.746094 147.6875 312.117188 147 312.46875 146.296875 C 312.820312 145.59375 313.148438 144.882812 313.457031 144.15625 C 313.761719 143.433594 314.042969 142.703125 314.300781 141.960938 C 314.558594 141.21875 314.792969 140.46875 315.003906 139.714844 C 315.210938 138.957031 315.398438 138.195312 315.558594 137.425781 C 315.71875 136.65625 315.855469 135.882812 315.964844 135.105469 C 316.074219 134.328125 316.160156 133.550781 316.21875 132.765625 C 316.28125 131.984375 316.316406 131.199219 316.324219 130.414062 C 316.332031 129.628906 316.316406 128.84375 316.277344 128.0625 C 316.234375 127.277344 316.167969 126.496094 316.078125 125.714844 C 315.984375 124.933594 315.867188 124.160156 315.726562 123.386719 C 315.582031 122.613281 315.417969 121.847656 315.226562 121.085938 C 315.035156 120.324219 314.816406 119.570312 314.578125 118.824219 C 314.335938 118.074219 314.074219 117.335938 313.785156 116.605469 C 313.496094 115.875 313.183594 115.15625 312.851562 114.445312 C 312.515625 113.734375 312.15625 113.035156 311.777344 112.347656 C 311.398438 111.660156 310.996094 110.988281 310.574219 110.328125 C 310.148438 109.664062 309.707031 109.019531 309.242188 108.386719 C 308.773438 107.753906 308.289062 107.136719 307.785156 106.535156 C 307.28125 105.933594 306.757812 105.351562 306.214844 104.78125 C 305.671875 104.214844 305.109375 103.667969 304.53125 103.136719 C 303.953125 102.605469 303.359375 102.09375 302.746094 101.601562 C 302.136719 101.109375 301.507812 100.636719 300.867188 100.183594 C 300.222656 99.730469 299.570312 99.300781 298.898438 98.890625 C 298.230469 98.480469 297.546875 98.09375 296.851562 97.726562 C 296.15625 97.363281 295.449219 97.019531 294.734375 96.699219 C 294.015625 96.378906 293.289062 96.082031 292.554688 95.808594 C 291.816406 95.535156 291.074219 95.289062 290.320312 95.0625 C 289.570312 94.839844 288.8125 94.636719 288.046875 94.460938 C 287.28125 94.285156 286.511719 94.136719 285.734375 94.007812 C 284.960938 93.882812 284.183594 93.78125 283.402344 93.707031 C 282.617188 93.628906 281.835938 93.578125 281.050781 93.554688 C 280.265625 93.53125 279.480469 93.53125 278.695312 93.554688 C 277.910156 93.582031 277.128906 93.632812 276.347656 93.707031 C 275.566406 93.785156 274.789062 93.886719 274.011719 94.011719 C 273.238281 94.136719 272.46875 94.289062 271.703125 94.464844 C 270.9375 94.640625 270.179688 94.84375 269.425781 95.066406 C 268.675781 95.292969 267.929688 95.542969 267.195312 95.816406 C 266.457031 96.089844 265.730469 96.386719 265.015625 96.707031 C 264.296875 97.027344 263.59375 97.371094 262.898438 97.734375 C 262.203125 98.101562 261.519531 98.488281 260.851562 98.898438 C 260.183594 99.308594 259.527344 99.742188 258.882812 100.195312 C 258.242188 100.644531 257.617188 101.117188 257.003906 101.613281 C 256.394531 102.105469 255.800781 102.617188 255.222656 103.148438 C 254.644531 103.679688 254.082031 104.230469 253.539062 104.796875 C 252.996094 105.363281 252.472656 105.949219 251.96875 106.550781 C 251.464844 107.152344 250.980469 107.769531 250.515625 108.402344 C 250.050781 109.035156 249.605469 109.679688 249.183594 110.34375 C 248.757812 111.003906 248.359375 111.679688 247.980469 112.363281 C 247.597656 113.050781 247.242188 113.75 246.90625 114.460938 C 246.574219 115.171875 246.261719 115.894531 245.976562 116.625 C 245.6875 117.355469 245.421875 118.09375 245.183594 118.839844 C 244.945312 119.589844 244.726562 120.34375 244.535156 121.105469 L 230.847656 121.105469 L 231.464844 116.691406 L 223.5625 110.527344 C 224.421875 108.078125 225.441406 105.695312 226.625 103.378906 L 236.539062 104.703125 L 244.632812 94.261719 L 240.890625 85.015625 C 242.8125 83.34375 244.84375 81.820312 246.984375 80.445312 L 254.925781 86.625 L 267.429688 81.417969 L 268.742188 71.539062 C 271.273438 71.136719 273.816406 70.867188 276.375 70.726562 L 280.105469 80.171875 L 293.179688 82.003906 L 299.355469 74.066406 C 301.734375 74.886719 304.152344 75.984375 306.507812 77.078125 L 305.175781 87.066406 L 315.597656 95.152344 L 324.847656 91.410156 C 326.515625 93.335938 328.039062 95.367188 329.417969 97.503906 L 323.246094 105.441406 L 328.207031 117.71875 L 338.105469 119.039062 C 338.570312 121.570312 338.910156 124.117188 339.121094 126.679688 L 329.925781 130.402344 L 327.832031 143.238281 Z M 335.769531 149.410156 " fill-opacity="1" fill-rule="nonzero"/></g><path fill="#000000" d="M 131.03125 110.371094 L 134.679688 110.371094 L 134.679688 115.207031 L 131.03125 115.207031 Z M 131.03125 110.371094 " fill-opacity="1" fill-rule="nonzero"/><path fill="#000000" d="M 131.03125 100.699219 L 134.679688 100.699219 L 134.679688 105.535156 L 131.03125 105.535156 Z M 131.03125 100.699219 " fill-opacity="1" fill-rule="nonzero"/><path fill="#000000" d="M 134.679688 95.03125 L 135.511719 95.03125 L 135.511719 91.386719 L 131.03125 91.386719 L 131.03125 95.863281 L 134.679688 95.863281 Z M 134.679688 95.03125 " fill-opacity="1" fill-rule="nonzero"/><path fill="#000000" d="M 206.871094 91.386719 L 212.359375 91.386719 L 212.359375 95.03125 L 206.871094 95.03125 Z M 206.871094 91.386719 " fill-opacity="1" fill-rule="nonzero"/><path fill="#000000" d="M 184.910156 91.386719 L 190.402344 91.386719 L 190.402344 95.03125 L 184.910156 95.03125 Z M 184.910156 91.386719 " fill-opacity="1" fill-rule="nonzero"/><path fill="#000000" d="M 228.824219 91.386719 L 234.316406 91.386719 L 234.316406 95.03125 L 228.824219 95.03125 Z M 228.824219 91.386719 " fill-opacity="1" fill-rule="nonzero"/><path fill="#000000" d="M 217.847656 91.386719 L 223.339844 91.386719 L 223.339844 95.03125 L 217.847656 95.03125 Z M 217.847656 91.386719 " fill-opacity="1" fill-rule="nonzero"/><path fill="#000000" d="M 195.886719 91.386719 L 201.378906 91.386719 L 201.378906 95.03125 L 195.886719 95.03125 Z M 195.886719 91.386719 " fill-opacity="1" fill-rule="nonzero"/><path fill="#000000" d="M 173.933594 91.386719 L 179.425781 91.386719 L 179.425781 95.03125 L 173.933594 95.03125 Z M 173.933594 91.386719 " fill-opacity="1" fill-rule="nonzero"/><path fill="#000000" d="M 151.976562 91.386719 L 157.46875 91.386719 L 157.46875 95.03125 L 151.976562 95.03125 Z M 151.976562 91.386719 " fill-opacity="1" fill-rule="nonzero"/><path fill="#000000" d="M 141 91.386719 L 146.492188 91.386719 L 146.492188 95.03125 L 141 95.03125 Z M 141 91.386719 " fill-opacity="1" fill-rule="nonzero"/><path fill="#000000" d="M 162.957031 91.386719 L 168.445312 91.386719 L 168.445312 95.03125 L 162.957031 95.03125 Z M 162.957031 91.386719 " fill-opacity="1" fill-rule="nonzero"/><path fill="#000000" d="M 324.671875 217.246094 L 328.320312 217.246094 L 328.320312 222.570312 L 324.671875 222.570312 Z M 324.671875 217.246094 " fill-opacity="1" fill-rule="nonzero"/><path fill="#000000" d="M 324.671875 206.597656 L 328.320312 206.597656 L 328.320312 211.925781 L 324.671875 211.925781 Z M 324.671875 206.597656 " fill-opacity="1" fill-rule="nonzero"/><path fill="#000000" d="M 324.671875 195.953125 L 328.320312 195.953125 L 328.320312 201.277344 L 324.671875 201.277344 Z M 324.671875 195.953125 " fill-opacity="1" fill-rule="nonzero"/><path fill="#000000" d="M 324.671875 174.65625 L 328.320312 174.65625 L 328.320312 179.980469 L 324.671875 179.980469 Z M 324.671875 174.65625 " fill-opacity="1" fill-rule="nonzero"/><path fill="#000000" d="M 324.671875 164.007812 L 328.320312 164.007812 L 328.320312 169.335938 L 324.671875 169.335938 Z M 324.671875 164.007812 " fill-opacity="1" fill-rule="nonzero"/><path fill="#000000" d="M 324.671875 185.300781 L 328.320312 185.300781 L 328.320312 190.628906 L 324.671875 190.628906 Z M 324.671875 185.300781 " fill-opacity="1" fill-rule="nonzero"/><path fill="#000000" d="M 324.671875 227.890625 L 328.320312 227.890625 L 328.320312 233.214844 L 324.671875 233.214844 Z M 324.671875 227.890625 " fill-opacity="1" fill-rule="nonzero"/><path fill="#000000" d="M 324.671875 238.539062 L 328.320312 238.539062 L 328.320312 243.863281 L 324.671875 243.863281 Z M 324.671875 238.539062 " fill-opacity="1" fill-rule="nonzero"/><path fill="#000000" d="M 324.671875 250.015625 L 323.839844 250.015625 L 323.839844 253.664062 L 328.320312 253.664062 L 328.320312 249.183594 L 324.671875 249.183594 Z M 324.671875 250.015625 " fill-opacity="1" fill-rule="nonzero"/><path fill="#000000" d="M 311.421875 250.015625 L 317.632812 250.015625 L 317.632812 253.664062 L 311.421875 253.664062 Z M 311.421875 250.015625 " fill-opacity="1" fill-rule="nonzero"/><path fill="#000000" d="M 299.003906 250.015625 L 305.210938 250.015625 L 305.210938 253.664062 L 299.003906 253.664062 Z M 299.003906 250.015625 " fill-opacity="1" fill-rule="nonzero"/></svg>