<svg xmlns="http://www.w3.org/2000/svg" xmlns:xlink="http://www.w3.org/1999/xlink" width="500" zoomAndPan="magnify" viewBox="0 0 375 374.999991" height="500" preserveAspectRatio="xMidYMid meet" version="1.0"><defs><clipPath id="8e7f8f2b77"><path d="M 98.914062 114 L 323.914062 114 L 323.914062 319 L 98.914062 319 Z M 98.914062 114 " clip-rule="nonzero"/></clipPath><clipPath id="0cf7bfeec7"><path d="M 234 137 L 323.914062 137 L 323.914062 190 L 234 190 Z M 234 137 " clip-rule="nonzero"/></clipPath></defs><g clip-path="url(#8e7f8f2b77)"><path fill="#000000" d="M 323.980469 221.722656 L 324.15625 221.722656 L 324.015625 145.917969 L 320.855469 145.917969 L 320.964844 204.28125 L 238.023438 204.28125 L 237.964844 145.691406 L 234.800781 145.691406 L 234.882812 221.730469 L 236.472656 221.730469 L 234.882812 221.757812 L 235.148438 237.980469 C 235.152344 239.273438 235.585938 240.402344 236.445312 241.371094 C 237.222656 242.359375 238.636719 243.003906 240.019531 243.007812 C 257.296875 243.035156 269.042969 256.6875 269.164062 269.429688 C 269.214844 272.96875 268.070312 277.847656 266.734375 282.859375 L 137.753906 282.859375 C 137.140625 282.855469 136.539062 282.796875 135.9375 282.675781 C 135.339844 282.558594 134.757812 282.378906 134.191406 282.144531 C 133.628906 281.910156 133.089844 281.625 132.582031 281.285156 C 132.074219 280.945312 131.605469 280.558594 131.171875 280.128906 C 130.742188 279.695312 130.355469 279.226562 130.015625 278.71875 C 129.675781 278.210938 129.386719 277.671875 129.152344 277.109375 C 128.917969 276.542969 128.742188 275.960938 128.621094 275.363281 C 128.503906 274.765625 128.441406 274.160156 128.441406 273.546875 L 128.441406 262.03125 L 191.679688 262.03125 C 192.386719 262.03125 193.082031 261.964844 193.773438 261.824219 C 194.464844 261.6875 195.136719 261.484375 195.785156 261.214844 C 196.4375 260.941406 197.054688 260.613281 197.640625 260.21875 C 198.226562 259.828125 198.769531 259.382812 199.269531 258.886719 C 199.765625 258.386719 200.210938 257.84375 200.601562 257.257812 C 200.996094 256.671875 201.324219 256.054688 201.59375 255.402344 C 201.867188 254.753906 202.070312 254.082031 202.207031 253.390625 C 202.34375 252.699219 202.414062 252.003906 202.414062 251.296875 L 202.414062 173.667969 C 202.414062 172.964844 202.34375 172.265625 202.207031 171.574219 C 202.070312 170.882812 201.867188 170.214844 201.59375 169.5625 C 201.324219 168.910156 200.996094 168.292969 200.601562 167.707031 C 200.210938 167.121094 199.765625 166.578125 199.269531 166.082031 C 198.769531 165.582031 198.226562 165.136719 197.640625 164.746094 C 197.054688 164.355469 196.4375 164.023438 195.785156 163.753906 C 195.136719 163.484375 194.464844 163.28125 193.773438 163.140625 C 193.082031 163.003906 192.386719 162.933594 191.679688 162.933594 L 139.332031 162.933594 L 139.332031 158.359375 L 136.171875 158.359375 L 136.171875 162.921875 L 128.441406 162.921875 L 128.441406 126.890625 C 128.441406 126.347656 128.492188 125.808594 128.585938 125.269531 C 128.683594 124.734375 128.824219 124.210938 129.011719 123.703125 C 129.199219 123.191406 129.429688 122.699219 129.699219 122.230469 C 129.972656 121.757812 130.285156 121.316406 130.636719 120.898438 C 130.988281 120.484375 131.371094 120.101562 131.789062 119.753906 C 132.207031 119.402344 132.652344 119.09375 133.125 118.824219 C 133.597656 118.554688 134.089844 118.324219 134.601562 118.140625 C 135.113281 117.957031 135.636719 117.816406 136.171875 117.722656 L 136.171875 122.101562 L 139.332031 122.101562 L 139.332031 117.582031 L 277.46875 117.582031 C 278.078125 117.582031 278.683594 117.640625 279.285156 117.761719 C 279.882812 117.882812 280.464844 118.058594 281.03125 118.292969 C 281.59375 118.527344 282.132812 118.8125 282.640625 119.152344 C 283.148438 119.492188 283.617188 119.878906 284.050781 120.3125 C 284.484375 120.742188 284.867188 121.214844 285.207031 121.722656 C 285.546875 122.230469 285.835938 122.765625 286.070312 123.332031 C 286.304688 123.894531 286.480469 124.476562 286.601562 125.078125 C 286.71875 125.675781 286.78125 126.28125 286.78125 126.894531 L 286.78125 137.539062 L 289.9375 137.539062 L 289.9375 126.894531 C 289.9375 126.074219 289.855469 125.265625 289.695312 124.460938 C 289.535156 123.65625 289.296875 122.878906 288.984375 122.121094 C 288.671875 121.367188 288.285156 120.648438 287.832031 119.96875 C 287.375 119.285156 286.859375 118.65625 286.28125 118.078125 C 285.699219 117.5 285.070312 116.980469 284.390625 116.527344 C 283.710938 116.070312 282.992188 115.6875 282.234375 115.375 C 281.476562 115.058594 280.699219 114.824219 279.894531 114.660156 C 279.09375 114.5 278.28125 114.421875 277.464844 114.421875 L 137.753906 114.421875 C 136.933594 114.421875 136.125 114.5 135.320312 114.660156 C 134.519531 114.824219 133.738281 115.058594 132.980469 115.375 C 132.226562 115.6875 131.507812 116.070312 130.828125 116.527344 C 130.144531 116.980469 129.515625 117.5 128.9375 118.078125 C 128.359375 118.65625 127.839844 119.285156 127.386719 119.96875 C 126.929688 120.648438 126.546875 121.367188 126.234375 122.121094 C 125.917969 122.878906 125.683594 123.65625 125.523438 124.460938 C 125.363281 125.265625 125.28125 126.074219 125.28125 126.894531 L 125.28125 162.925781 L 109.648438 162.925781 C 108.945312 162.925781 108.246094 162.996094 107.554688 163.132812 C 106.863281 163.273438 106.195312 163.476562 105.542969 163.746094 C 104.890625 164.015625 104.273438 164.347656 103.6875 164.738281 C 103.101562 165.128906 102.558594 165.574219 102.0625 166.074219 C 101.5625 166.570312 101.117188 167.113281 100.726562 167.699219 C 100.335938 168.285156 100.003906 168.902344 99.734375 169.554688 C 99.464844 170.203125 99.261719 170.875 99.121094 171.566406 C 98.984375 172.257812 98.914062 172.953125 98.914062 173.660156 L 98.914062 251.285156 C 98.914062 251.992188 98.984375 252.6875 99.121094 253.378906 C 99.257812 254.070312 99.464844 254.742188 99.734375 255.394531 C 100.003906 256.042969 100.335938 256.664062 100.726562 257.25 C 101.117188 257.832031 101.5625 258.375 102.0625 258.875 C 102.558594 259.371094 103.101562 259.816406 103.6875 260.210938 C 104.273438 260.601562 104.890625 260.929688 105.542969 261.203125 C 106.191406 261.472656 106.863281 261.675781 107.554688 261.8125 C 108.246094 261.953125 108.945312 262.023438 109.648438 262.023438 L 125.28125 262.023438 L 125.28125 273.53125 C 125.28125 274.351562 125.363281 275.160156 125.523438 275.964844 C 125.683594 276.765625 125.921875 277.546875 126.234375 278.300781 C 126.546875 279.058594 126.933594 279.777344 127.386719 280.457031 C 127.84375 281.136719 128.359375 281.765625 128.9375 282.347656 C 129.515625 282.925781 130.148438 283.441406 130.828125 283.898438 C 131.507812 284.351562 132.226562 284.734375 132.984375 285.050781 C 133.738281 285.363281 134.519531 285.601562 135.320312 285.761719 C 136.125 285.921875 136.933594 286 137.753906 286.003906 L 265.898438 286.003906 C 265.878906 286.066406 265.863281 286.128906 265.84375 286.191406 C 264.257812 291.988281 262.773438 297.460938 262.742188 301.351562 L 262.742188 301.699219 C 262.742188 302.300781 262.742188 309.707031 269.363281 314.972656 C 270.898438 316.183594 272.589844 317.105469 274.433594 317.742188 C 276.28125 318.378906 278.183594 318.691406 280.136719 318.683594 C 282.496094 318.691406 284.765625 318.242188 286.941406 317.335938 C 289.121094 316.425781 291.035156 315.128906 292.691406 313.449219 C 297.722656 308.277344 297.671875 302.382812 297.636719 301.578125 C 297.710938 298.289062 296.164062 292.863281 294.382812 286.589844 C 292.625 280.417969 290.636719 273.421875 290.578125 269.125 C 290.511719 262.90625 293.417969 256.242188 298.347656 251.292969 C 303.742188 245.875 311.09375 242.894531 319.074219 242.894531 L 319.277344 242.894531 C 322.195312 242.894531 324.226562 240.367188 324.21875 238.085938 Z M 191.679688 166.082031 C 192.175781 166.085938 192.667969 166.132812 193.15625 166.230469 C 193.644531 166.328125 194.117188 166.472656 194.578125 166.664062 C 195.035156 166.851562 195.472656 167.085938 195.886719 167.363281 C 196.300781 167.640625 196.683594 167.953125 197.035156 168.304688 C 197.386719 168.65625 197.699219 169.039062 197.976562 169.453125 C 198.253906 169.867188 198.484375 170.300781 198.675781 170.761719 C 198.867188 171.21875 199.011719 171.695312 199.109375 172.179688 C 199.207031 172.667969 199.253906 173.160156 199.253906 173.660156 L 199.253906 251.285156 C 199.253906 251.785156 199.207031 252.277344 199.109375 252.765625 C 199.011719 253.25 198.867188 253.726562 198.675781 254.183594 C 198.484375 254.644531 198.253906 255.078125 197.976562 255.492188 C 197.699219 255.90625 197.386719 256.289062 197.035156 256.640625 C 196.683594 256.992188 196.300781 257.304688 195.886719 257.582031 C 195.472656 257.859375 195.035156 258.09375 194.578125 258.28125 C 194.117188 258.472656 193.644531 258.617188 193.15625 258.714844 C 192.667969 258.8125 192.175781 258.859375 191.679688 258.863281 L 139.332031 258.863281 L 139.332031 253.660156 L 136.171875 253.660156 L 136.171875 258.871094 L 128.441406 258.871094 L 128.441406 166.082031 Z M 109.648438 258.871094 C 109.152344 258.871094 108.660156 258.824219 108.171875 258.726562 C 107.683594 258.628906 107.210938 258.484375 106.75 258.292969 C 106.292969 258.101562 105.855469 257.867188 105.441406 257.59375 C 105.03125 257.316406 104.648438 257.003906 104.296875 256.652344 C 103.945312 256.300781 103.628906 255.917969 103.355469 255.503906 C 103.078125 255.089844 102.84375 254.652344 102.652344 254.195312 C 102.460938 253.734375 102.320312 253.261719 102.222656 252.773438 C 102.125 252.285156 102.074219 251.792969 102.074219 251.296875 L 102.074219 173.667969 C 102.074219 173.171875 102.125 172.679688 102.222656 172.191406 C 102.320312 171.703125 102.460938 171.230469 102.652344 170.773438 C 102.84375 170.3125 103.078125 169.875 103.355469 169.464844 C 103.628906 169.050781 103.945312 168.667969 104.296875 168.316406 C 104.648438 167.964844 105.03125 167.652344 105.441406 167.375 C 105.855469 167.097656 106.292969 166.863281 106.75 166.675781 C 107.210938 166.484375 107.683594 166.339844 108.171875 166.242188 C 108.660156 166.144531 109.152344 166.09375 109.648438 166.09375 L 125.28125 166.09375 L 125.28125 258.871094 Z M 320.96875 207.445312 L 320.992188 218.367188 L 238.039062 218.367188 L 238.039062 207.445312 Z M 319.285156 239.753906 L 319.058594 239.753906 C 310.246094 239.753906 302.101562 243.058594 296.105469 249.078125 C 290.589844 254.617188 287.34375 262.128906 287.414062 269.179688 C 287.480469 273.90625 289.445312 280.800781 291.339844 287.460938 C 292.929688 293.027344 294.554688 298.765625 294.476562 301.558594 L 294.476562 301.707031 C 294.476562 301.757812 294.757812 306.800781 290.425781 311.246094 C 285.363281 316.4375 276.976562 316.988281 271.328125 312.492188 C 270.511719 311.851562 269.777344 311.125 269.117188 310.320312 C 268.460938 309.515625 267.898438 308.648438 267.429688 307.722656 C 266.960938 306.792969 266.597656 305.824219 266.339844 304.816406 C 266.082031 303.808594 265.933594 302.789062 265.902344 301.746094 L 265.902344 301.351562 C 265.929688 297.894531 267.367188 292.609375 268.890625 287.019531 C 270.621094 280.683594 272.40625 274.136719 272.335938 269.371094 C 272.1875 255.125 259.167969 239.855469 240.011719 239.824219 C 239.597656 239.820312 239.238281 239.679688 238.933594 239.394531 L 238.859375 239.289062 L 238.765625 239.199219 C 238.464844 238.824219 238.316406 238.402344 238.3125 237.921875 L 238.046875 221.683594 L 238.046875 221.515625 L 320.8125 221.515625 L 321.058594 238.121094 C 321.035156 238.34375 320.972656 238.550781 320.871094 238.75 C 320.773438 238.949219 320.640625 239.121094 320.476562 239.273438 C 320.316406 239.421875 320.128906 239.539062 319.925781 239.621094 C 319.71875 239.703125 319.507812 239.75 319.285156 239.753906 Z M 319.285156 239.753906 " fill-opacity="1" fill-rule="nonzero"/></g><path fill="#000000" d="M 136.171875 221.890625 L 139.332031 221.890625 L 139.332031 227.992188 L 136.171875 227.992188 Z M 136.171875 221.890625 " fill-opacity="1" fill-rule="nonzero"/><path fill="#000000" d="M 136.171875 211.304688 L 139.332031 211.304688 L 139.332031 217.402344 L 136.171875 217.402344 Z M 136.171875 211.304688 " fill-opacity="1" fill-rule="nonzero"/><path fill="#000000" d="M 136.171875 179.535156 L 139.332031 179.535156 L 139.332031 185.632812 L 136.171875 185.632812 Z M 136.171875 179.535156 " fill-opacity="1" fill-rule="nonzero"/><path fill="#000000" d="M 136.171875 232.480469 L 139.332031 232.480469 L 139.332031 238.582031 L 136.171875 238.582031 Z M 136.171875 232.480469 " fill-opacity="1" fill-rule="nonzero"/><path fill="#000000" d="M 136.171875 168.949219 L 139.332031 168.949219 L 139.332031 175.046875 L 136.171875 175.046875 Z M 136.171875 168.949219 " fill-opacity="1" fill-rule="nonzero"/><path fill="#000000" d="M 136.171875 200.714844 L 139.332031 200.714844 L 139.332031 206.8125 L 136.171875 206.8125 Z M 136.171875 200.714844 " fill-opacity="1" fill-rule="nonzero"/><path fill="#000000" d="M 136.171875 190.125 L 139.332031 190.125 L 139.332031 196.222656 L 136.171875 196.222656 Z M 136.171875 190.125 " fill-opacity="1" fill-rule="nonzero"/><path fill="#000000" d="M 136.171875 243.070312 L 139.332031 243.070312 L 139.332031 249.171875 L 136.171875 249.171875 Z M 136.171875 243.070312 " fill-opacity="1" fill-rule="nonzero"/><path fill="#000000" d="M 136.171875 126.589844 L 139.332031 126.589844 L 139.332031 132.691406 L 136.171875 132.691406 Z M 136.171875 126.589844 " fill-opacity="1" fill-rule="nonzero"/><path fill="#000000" d="M 136.171875 274.835938 L 139.332031 274.835938 L 139.332031 280.9375 L 136.171875 280.9375 Z M 136.171875 274.835938 " fill-opacity="1" fill-rule="nonzero"/><path fill="#000000" d="M 136.171875 264.25 L 139.332031 264.25 L 139.332031 270.347656 L 136.171875 270.347656 Z M 136.171875 264.25 " fill-opacity="1" fill-rule="nonzero"/><path fill="#000000" d="M 136.171875 137.179688 L 139.332031 137.179688 L 139.332031 143.277344 L 136.171875 143.277344 Z M 136.171875 137.179688 " fill-opacity="1" fill-rule="nonzero"/><path fill="#000000" d="M 136.171875 147.769531 L 139.332031 147.769531 L 139.332031 153.867188 L 136.171875 153.867188 Z M 136.171875 147.769531 " fill-opacity="1" fill-rule="nonzero"/><path fill="#000000" d="M 280.109375 292.054688 C 279.519531 292.054688 278.9375 292.113281 278.359375 292.226562 C 277.78125 292.34375 277.222656 292.511719 276.675781 292.738281 C 276.132812 292.964844 275.617188 293.238281 275.125 293.566406 C 274.636719 293.894531 274.183594 294.265625 273.765625 294.683594 C 273.351562 295.097656 272.980469 295.550781 272.652344 296.039062 C 272.324219 296.53125 272.046875 297.046875 271.824219 297.589844 C 271.597656 298.136719 271.425781 298.695312 271.3125 299.273438 C 271.195312 299.851562 271.140625 300.433594 271.140625 301.023438 C 271.140625 301.613281 271.195312 302.195312 271.3125 302.773438 C 271.425781 303.351562 271.597656 303.914062 271.820312 304.457031 C 272.046875 305 272.324219 305.515625 272.648438 306.007812 C 272.976562 306.496094 273.347656 306.949219 273.765625 307.367188 C 274.183594 307.78125 274.636719 308.15625 275.125 308.480469 C 275.613281 308.808594 276.132812 309.085938 276.675781 309.308594 C 277.21875 309.535156 277.78125 309.707031 278.359375 309.820312 C 278.9375 309.9375 279.519531 309.992188 280.109375 309.992188 C 280.695312 309.992188 281.28125 309.933594 281.859375 309.820312 C 282.4375 309.707031 282.996094 309.535156 283.539062 309.308594 C 284.085938 309.085938 284.601562 308.808594 285.089844 308.480469 C 285.582031 308.152344 286.035156 307.78125 286.449219 307.363281 C 286.867188 306.949219 287.238281 306.496094 287.566406 306.003906 C 287.890625 305.515625 288.167969 305 288.394531 304.453125 C 288.617188 303.910156 288.789062 303.347656 288.902344 302.773438 C 289.019531 302.195312 289.074219 301.609375 289.074219 301.023438 C 289.074219 300.433594 289.015625 299.851562 288.902344 299.273438 C 288.785156 298.695312 288.617188 298.136719 288.390625 297.59375 C 288.164062 297.050781 287.886719 296.53125 287.5625 296.042969 C 287.234375 295.554688 286.863281 295.101562 286.445312 294.683594 C 286.03125 294.269531 285.578125 293.898438 285.089844 293.570312 C 284.597656 293.242188 284.082031 292.96875 283.539062 292.742188 C 282.996094 292.515625 282.433594 292.34375 281.859375 292.230469 C 281.28125 292.113281 280.699219 292.058594 280.109375 292.054688 Z M 280.109375 306.828125 C 279.730469 306.828125 279.351562 306.792969 278.976562 306.71875 C 278.601562 306.644531 278.238281 306.535156 277.886719 306.386719 C 277.535156 306.242188 277.199219 306.0625 276.882812 305.851562 C 276.566406 305.640625 276.273438 305.398438 276.003906 305.128906 C 275.734375 304.859375 275.492188 304.566406 275.28125 304.25 C 275.066406 303.933594 274.890625 303.597656 274.742188 303.246094 C 274.597656 302.894531 274.484375 302.53125 274.410156 302.15625 C 274.335938 301.78125 274.300781 301.40625 274.300781 301.023438 C 274.300781 300.640625 274.335938 300.265625 274.410156 299.890625 C 274.484375 299.515625 274.59375 299.152344 274.742188 298.800781 C 274.886719 298.449219 275.066406 298.113281 275.277344 297.796875 C 275.488281 297.480469 275.730469 297.1875 276 296.917969 C 276.269531 296.648438 276.5625 296.40625 276.878906 296.195312 C 277.195312 295.980469 277.53125 295.804688 277.882812 295.65625 C 278.234375 295.511719 278.597656 295.402344 278.972656 295.328125 C 279.347656 295.25 279.726562 295.214844 280.105469 295.214844 C 280.488281 295.214844 280.867188 295.25 281.238281 295.324219 C 281.613281 295.398438 281.976562 295.511719 282.328125 295.65625 C 282.679688 295.800781 283.015625 295.980469 283.332031 296.191406 C 283.652344 296.40625 283.945312 296.644531 284.214844 296.914062 C 284.484375 297.183594 284.722656 297.476562 284.9375 297.796875 C 285.148438 298.113281 285.328125 298.445312 285.472656 298.800781 C 285.617188 299.152344 285.730469 299.515625 285.804688 299.890625 C 285.878906 300.261719 285.914062 300.640625 285.914062 301.023438 C 285.914062 301.402344 285.878906 301.78125 285.804688 302.15625 C 285.730469 302.53125 285.621094 302.894531 285.472656 303.246094 C 285.328125 303.597656 285.148438 303.933594 284.9375 304.25 C 284.726562 304.566406 284.484375 304.859375 284.214844 305.132812 C 283.945312 305.402344 283.652344 305.640625 283.335938 305.855469 C 283.019531 306.066406 282.683594 306.246094 282.332031 306.390625 C 281.980469 306.539062 281.617188 306.648438 281.242188 306.722656 C 280.871094 306.800781 280.492188 306.835938 280.109375 306.835938 Z M 280.109375 306.828125 " fill-opacity="1" fill-rule="nonzero"/><g clip-path="url(#0cf7bfeec7)"><path fill="#000000" d="M 316.941406 137.738281 L 239.28125 137.59375 C 238.96875 137.59375 238.660156 137.621094 238.355469 137.679688 C 238.050781 137.742188 237.757812 137.828125 237.46875 137.949219 C 237.183594 138.066406 236.910156 138.210938 236.652344 138.386719 C 236.394531 138.558594 236.15625 138.753906 235.9375 138.976562 C 235.71875 139.195312 235.523438 139.4375 235.351562 139.695312 C 235.183594 139.953125 235.039062 140.226562 234.921875 140.515625 C 234.804688 140.804688 234.71875 141.101562 234.660156 141.40625 C 234.605469 141.710938 234.578125 142.019531 234.582031 142.328125 L 234.601562 148.179688 C 234.601562 148.179688 262.117188 146.953125 270.265625 153.082031 C 276.34375 157.652344 276.953125 168.941406 276.953125 168.941406 C 277.566406 174.898438 279.5 176.78125 282.332031 176.582031 C 285.164062 176.382812 287.605469 173.730469 287.40625 171.089844 L 287.269531 184.867188 C 287.253906 185.1875 287.273438 185.503906 287.328125 185.820312 C 287.378906 186.136719 287.464844 186.441406 287.582031 186.738281 C 287.699219 187.039062 287.84375 187.320312 288.019531 187.589844 C 288.195312 187.855469 288.398438 188.101562 288.625 188.328125 C 288.851562 188.554688 289.097656 188.753906 289.367188 188.929688 C 289.636719 189.101562 289.921875 189.246094 290.21875 189.359375 C 290.519531 189.476562 290.824219 189.558594 291.140625 189.609375 C 291.457031 189.660156 291.777344 189.675781 292.097656 189.660156 C 292.421875 189.648438 292.742188 189.609375 293.058594 189.535156 C 293.378906 189.464844 293.6875 189.363281 293.984375 189.234375 C 294.28125 189.101562 294.566406 188.945312 294.835938 188.761719 C 295.105469 188.578125 295.351562 188.371094 295.582031 188.140625 C 295.8125 187.910156 296.019531 187.660156 296.199219 187.386719 C 296.382812 187.117188 296.535156 186.832031 296.664062 186.535156 C 296.792969 186.234375 296.890625 185.925781 296.960938 185.609375 C 297.03125 185.289062 297.070312 184.96875 297.078125 184.644531 L 297.058594 178.226562 C 297.0625 178.542969 297.09375 178.855469 297.15625 179.164062 C 297.222656 179.472656 297.3125 179.773438 297.4375 180.0625 C 297.558594 180.355469 297.707031 180.632812 297.886719 180.890625 C 298.0625 181.152344 298.261719 181.394531 298.484375 181.617188 C 298.710938 181.839844 298.953125 182.039062 299.214844 182.214844 C 299.480469 182.390625 299.757812 182.535156 300.046875 182.65625 C 300.339844 182.777344 300.640625 182.867188 300.949219 182.929688 C 301.261719 182.992188 301.574219 183.023438 301.886719 183.023438 C 302.199219 183.023438 302.507812 182.996094 302.8125 182.933594 C 303.117188 182.875 303.410156 182.785156 303.699219 182.667969 C 303.984375 182.546875 304.257812 182.402344 304.515625 182.230469 C 304.773438 182.058594 305.011719 181.859375 305.230469 181.640625 C 305.449219 181.417969 305.644531 181.179688 305.816406 180.921875 C 305.988281 180.660156 306.128906 180.386719 306.246094 180.101562 C 306.363281 179.8125 306.449219 179.515625 306.507812 179.210938 C 306.566406 178.90625 306.59375 178.597656 306.589844 178.289062 L 307.054688 165.070312 C 307.746094 156.960938 311.207031 151.820312 315.324219 149.945312 C 319.441406 148.066406 324.097656 147.195312 324.097656 147.195312 L 324.078125 141.722656 C 324.261719 139.269531 322.703125 137.726562 320.0625 137.75 Z M 316.941406 137.738281 " fill-opacity="1" fill-rule="nonzero"/></g></svg>