<svg xmlns="http://www.w3.org/2000/svg" xmlns:xlink="http://www.w3.org/1999/xlink" width="500" zoomAndPan="magnify" viewBox="0 0 375 374.999991" height="500" preserveAspectRatio="xMidYMid meet" version="1.0"><defs><clipPath id="ac6d7e6b70"><path d="M 70 46 L 262.5 46 L 262.5 255 L 70 255 Z M 70 46 " clip-rule="nonzero"/></clipPath></defs><g clip-path="url(#ac6d7e6b70)"><path fill="#000000" d="M 259.648438 49.671875 C 258.734375 48.753906 257.679688 48.046875 256.484375 47.550781 C 255.289062 47.054688 254.042969 46.808594 252.75 46.8125 L 151.105469 46.546875 C 150.46875 46.546875 149.832031 46.609375 149.207031 46.734375 C 148.578125 46.859375 147.96875 47.042969 147.378906 47.289062 C 146.785156 47.535156 146.226562 47.832031 145.691406 48.1875 C 145.160156 48.542969 144.667969 48.945312 144.214844 49.398438 C 143.761719 49.851562 143.355469 50.34375 143 50.875 C 142.644531 51.40625 142.34375 51.96875 142.097656 52.558594 C 141.851562 53.148438 141.664062 53.757812 141.539062 54.382812 C 141.414062 55.011719 141.347656 55.644531 141.347656 56.285156 L 141.328125 80.890625 L 80.152344 80.964844 C 79.542969 80.964844 78.941406 81.027344 78.34375 81.144531 C 77.746094 81.265625 77.164062 81.441406 76.601562 81.675781 C 76.039062 81.910156 75.503906 82.195312 75 82.535156 C 74.492188 82.875 74.023438 83.257812 73.59375 83.691406 C 73.164062 84.121094 72.777344 84.589844 72.441406 85.097656 C 72.101562 85.605469 71.816406 86.140625 71.582031 86.703125 C 71.351562 87.265625 71.175781 87.847656 71.058594 88.445312 C 70.9375 89.042969 70.878906 89.644531 70.878906 90.253906 L 71.066406 245.636719 C 71.066406 246.246094 71.128906 246.847656 71.25 247.445312 C 71.371094 248.042969 71.546875 248.621094 71.78125 249.183594 C 72.015625 249.746094 72.300781 250.28125 72.640625 250.789062 C 72.980469 251.292969 73.367188 251.761719 73.796875 252.191406 C 74.230469 252.625 74.699219 253.007812 75.207031 253.34375 C 75.710938 253.683594 76.246094 253.96875 76.8125 254.203125 C 77.375 254.433594 77.953125 254.609375 78.550781 254.730469 C 79.148438 254.847656 79.753906 254.910156 80.363281 254.910156 L 148.890625 254.824219 C 149.5 254.824219 150.101562 254.765625 150.699219 254.644531 C 151.296875 254.523438 151.878906 254.347656 152.441406 254.113281 C 153.003906 253.878906 153.539062 253.59375 154.046875 253.253906 C 154.550781 252.917969 155.019531 252.53125 155.453125 252.097656 C 155.882812 251.667969 156.265625 251.199219 156.605469 250.691406 C 156.941406 250.183594 157.226562 249.648438 157.460938 249.085938 C 157.695312 248.523438 157.871094 247.941406 157.988281 247.34375 C 158.105469 246.746094 158.164062 246.140625 158.164062 245.53125 L 158.164062 236.613281 L 252.621094 236.847656 C 253.261719 236.847656 253.894531 236.785156 254.523438 236.660156 C 255.152344 236.535156 255.761719 236.351562 256.351562 236.105469 C 256.945312 235.859375 257.507812 235.5625 258.039062 235.203125 C 258.570312 234.847656 259.066406 234.445312 259.515625 233.992188 C 259.96875 233.539062 260.375 233.046875 260.730469 232.515625 C 261.085938 231.980469 261.386719 231.421875 261.632812 230.828125 C 261.878906 230.238281 262.0625 229.625 262.1875 229 C 262.3125 228.371094 262.375 227.738281 262.375 227.097656 L 262.496094 56.5625 C 262.5 55.269531 262.257812 54.027344 261.761719 52.832031 C 261.269531 51.636719 260.5625 50.582031 259.648438 49.671875 Z M 153.453125 250.105469 C 152.851562 250.710938 152.152344 251.179688 151.363281 251.507812 C 150.570312 251.835938 149.746094 252 148.890625 252 L 80.363281 252.078125 C 79.9375 252.078125 79.519531 252.035156 79.105469 251.953125 C 78.6875 251.871094 78.285156 251.746094 77.894531 251.585938 C 77.5 251.421875 77.128906 251.222656 76.777344 250.988281 C 76.425781 250.753906 76.097656 250.488281 75.800781 250.1875 C 75.5 249.886719 75.230469 249.5625 74.996094 249.210938 C 74.757812 248.859375 74.558594 248.488281 74.398438 248.097656 C 74.234375 247.703125 74.109375 247.300781 74.027344 246.886719 C 73.941406 246.46875 73.898438 246.050781 73.898438 245.628906 L 73.820312 178.097656 L 75.863281 178.097656 L 75.929688 232.890625 C 75.929688 233.152344 75.957031 233.410156 76.007812 233.664062 C 76.058594 233.921875 76.132812 234.167969 76.234375 234.410156 C 76.332031 234.648438 76.453125 234.878906 76.601562 235.09375 C 76.746094 235.3125 76.910156 235.511719 77.09375 235.695312 C 77.277344 235.882812 77.476562 236.046875 77.695312 236.191406 C 77.910156 236.335938 78.140625 236.457031 78.382812 236.558594 C 78.621094 236.65625 78.871094 236.730469 79.125 236.78125 C 79.382812 236.832031 79.640625 236.859375 79.898438 236.859375 L 149.269531 236.777344 C 149.796875 236.773438 150.300781 236.671875 150.789062 236.472656 C 151.273438 236.269531 151.703125 235.984375 152.074219 235.609375 C 152.445312 235.238281 152.730469 234.808594 152.933594 234.324219 C 153.136719 233.839844 153.238281 233.335938 153.238281 232.808594 L 153.078125 100.390625 C 153.078125 100.128906 153.054688 99.871094 153.003906 99.613281 C 152.953125 99.359375 152.875 99.109375 152.777344 98.871094 C 152.675781 98.628906 152.554688 98.402344 152.410156 98.183594 C 152.265625 97.96875 152.101562 97.765625 151.917969 97.582031 C 151.730469 97.398438 151.53125 97.234375 151.316406 97.089844 C 151.097656 96.945312 150.871094 96.820312 150.628906 96.722656 C 150.386719 96.621094 150.140625 96.546875 149.882812 96.496094 C 149.628906 96.445312 149.371094 96.421875 149.109375 96.421875 L 79.746094 96.503906 C 79.21875 96.503906 78.714844 96.605469 78.230469 96.808594 C 77.742188 97.011719 77.316406 97.296875 76.945312 97.667969 C 76.570312 98.039062 76.285156 98.46875 76.082031 98.953125 C 75.882812 99.441406 75.777344 99.945312 75.777344 100.472656 L 75.863281 175.277344 L 73.808594 175.277344 L 73.707031 90.253906 C 73.707031 89.828125 73.75 89.410156 73.832031 88.996094 C 73.914062 88.578125 74.039062 88.175781 74.199219 87.785156 C 74.363281 87.394531 74.5625 87.023438 74.796875 86.671875 C 75.03125 86.320312 75.296875 85.992188 75.597656 85.691406 C 75.898438 85.394531 76.222656 85.125 76.574219 84.890625 C 76.925781 84.65625 77.296875 84.457031 77.6875 84.292969 C 78.082031 84.132812 78.484375 84.011719 78.898438 83.925781 C 79.3125 83.84375 79.734375 83.800781 80.15625 83.800781 L 148.683594 83.71875 C 149.105469 83.71875 149.527344 83.761719 149.941406 83.839844 C 150.359375 83.921875 150.761719 84.042969 151.152344 84.207031 C 151.542969 84.367188 151.917969 84.5625 152.269531 84.796875 C 152.621094 85.03125 152.949219 85.300781 153.25 85.597656 C 153.550781 85.894531 153.820312 86.222656 154.054688 86.574219 C 154.292969 86.925781 154.492188 87.296875 154.65625 87.6875 C 154.820312 88.078125 154.941406 88.480469 155.027344 88.894531 C 155.109375 89.308594 155.152344 89.730469 155.15625 90.152344 L 155.339844 245.53125 C 155.34375 246.386719 155.183594 247.214844 154.855469 248.007812 C 154.53125 248.800781 154.0625 249.5 153.453125 250.105469 Z M 149.28125 233.910156 L 79.910156 233.992188 C 79.765625 233.992188 79.625 233.964844 79.488281 233.90625 C 79.355469 233.851562 79.238281 233.769531 79.132812 233.667969 C 79.03125 233.5625 78.953125 233.445312 78.894531 233.3125 C 78.839844 233.175781 78.8125 233.035156 78.808594 232.890625 L 78.648438 100.472656 C 78.648438 100.324219 78.675781 100.183594 78.730469 100.050781 C 78.789062 99.914062 78.867188 99.796875 78.96875 99.691406 C 79.074219 99.589844 79.191406 99.507812 79.328125 99.453125 C 79.460938 99.394531 79.601562 99.367188 79.75 99.367188 L 149.117188 99.28125 C 149.261719 99.285156 149.402344 99.3125 149.539062 99.371094 C 149.671875 99.425781 149.789062 99.507812 149.894531 99.609375 C 149.996094 99.710938 150.078125 99.832031 150.132812 99.964844 C 150.1875 100.101562 150.21875 100.242188 150.21875 100.386719 L 150.378906 232.804688 C 150.378906 232.949219 150.351562 233.089844 150.296875 233.226562 C 150.238281 233.359375 150.160156 233.480469 150.054688 233.582031 C 149.953125 233.6875 149.832031 233.765625 149.699219 233.824219 C 149.5625 233.878906 149.421875 233.90625 149.277344 233.90625 Z M 155.253906 83.59375 C 154.015625 82.355469 152.546875 81.535156 150.84375 81.136719 L 150.84375 66.691406 C 150.847656 66.523438 150.878906 66.359375 150.945312 66.207031 C 151.007812 66.050781 151.101562 65.914062 151.21875 65.792969 C 151.339844 65.675781 151.476562 65.582031 151.632812 65.515625 C 151.789062 65.453125 151.949219 65.417969 152.117188 65.417969 L 251.898438 65.667969 C 252.066406 65.667969 252.230469 65.703125 252.386719 65.765625 C 252.542969 65.832031 252.679688 65.925781 252.800781 66.046875 C 252.921875 66.167969 253.011719 66.304688 253.078125 66.460938 C 253.144531 66.617188 253.175781 66.78125 253.175781 66.949219 L 253.070312 213.613281 C 253.070312 213.78125 253.035156 213.941406 252.972656 214.097656 C 252.90625 214.253906 252.8125 214.390625 252.695312 214.507812 C 252.574219 214.628906 252.4375 214.71875 252.28125 214.785156 C 252.128906 214.847656 251.964844 214.882812 251.796875 214.882812 L 158.132812 214.652344 L 157.980469 90.152344 C 157.984375 88.921875 157.746094 87.738281 157.273438 86.597656 C 156.800781 85.460938 156.128906 84.460938 155.253906 83.59375 Z M 259.550781 227.097656 C 259.550781 227.550781 259.507812 228 259.417969 228.445312 C 259.328125 228.894531 259.199219 229.324219 259.023438 229.746094 C 258.851562 230.164062 258.636719 230.566406 258.382812 230.941406 C 258.128906 231.320312 257.84375 231.671875 257.523438 231.992188 C 257.199219 232.3125 256.851562 232.601562 256.472656 232.855469 C 256.09375 233.105469 255.695312 233.320312 255.277344 233.492188 C 254.855469 233.667969 254.421875 233.800781 253.976562 233.890625 C 253.53125 233.976562 253.082031 234.023438 252.625 234.023438 L 158.167969 233.789062 L 158.152344 217.4375 L 251.8125 217.667969 C 252.078125 217.667969 252.34375 217.640625 252.605469 217.589844 C 252.863281 217.539062 253.117188 217.460938 253.363281 217.359375 C 253.609375 217.253906 253.84375 217.128906 254.066406 216.984375 C 254.285156 216.835938 254.492188 216.667969 254.679688 216.476562 C 254.867188 216.289062 255.035156 216.085938 255.183594 215.863281 C 255.332031 215.644531 255.457031 215.410156 255.558594 215.164062 C 255.660156 214.917969 255.738281 214.664062 255.789062 214.402344 C 255.84375 214.140625 255.867188 213.878906 255.871094 213.613281 L 255.976562 66.953125 C 255.976562 66.6875 255.953125 66.421875 255.898438 66.160156 C 255.847656 65.898438 255.769531 65.644531 255.667969 65.398438 C 255.566406 65.152344 255.441406 64.917969 255.292969 64.699219 C 255.144531 64.476562 254.976562 64.269531 254.789062 64.082031 C 254.601562 63.890625 254.394531 63.722656 254.171875 63.574219 C 253.953125 63.425781 253.71875 63.300781 253.472656 63.199219 C 253.226562 63.097656 252.972656 63.019531 252.710938 62.964844 C 252.449219 62.914062 252.1875 62.886719 251.917969 62.882812 L 152.136719 62.636719 C 151.871094 62.636719 151.605469 62.664062 151.34375 62.714844 C 151.085938 62.765625 150.832031 62.84375 150.585938 62.945312 C 150.339844 63.046875 150.105469 63.171875 149.882812 63.320312 C 149.664062 63.46875 149.457031 63.636719 149.269531 63.824219 C 149.082031 64.011719 148.914062 64.21875 148.765625 64.4375 C 148.617188 64.660156 148.492188 64.894531 148.390625 65.140625 C 148.285156 65.386719 148.210938 65.640625 148.15625 65.902344 C 148.105469 66.160156 148.078125 66.425781 148.078125 66.691406 L 148.078125 80.886719 L 144.171875 80.886719 L 144.191406 56.28125 C 144.191406 55.824219 144.238281 55.375 144.324219 54.929688 C 144.414062 54.484375 144.546875 54.050781 144.722656 53.632812 C 144.894531 53.210938 145.109375 52.8125 145.363281 52.433594 C 145.613281 52.058594 145.902344 51.707031 146.222656 51.386719 C 146.542969 51.066406 146.894531 50.777344 147.273438 50.523438 C 147.648438 50.273438 148.050781 50.058594 148.46875 49.886719 C 148.890625 49.710938 149.320312 49.578125 149.765625 49.492188 C 150.214844 49.402344 150.664062 49.355469 151.117188 49.355469 L 252.761719 49.621094 C 253.214844 49.621094 253.664062 49.667969 254.109375 49.757812 C 254.554688 49.847656 254.988281 49.976562 255.40625 50.152344 C 255.828125 50.328125 256.226562 50.539062 256.601562 50.792969 C 256.980469 51.046875 257.328125 51.335938 257.648438 51.65625 C 257.972656 51.976562 258.257812 52.328125 258.507812 52.707031 C 258.761719 53.082031 258.976562 53.480469 259.148438 53.902344 C 259.320312 54.320312 259.453125 54.753906 259.542969 55.199219 C 259.628906 55.644531 259.675781 56.097656 259.675781 56.550781 Z M 259.550781 227.097656 " fill-opacity="1" fill-rule="nonzero"/></g><path fill="#000000" d="M 201.3125 219.886719 C 200.964844 219.886719 200.625 219.917969 200.285156 219.984375 C 199.945312 220.054688 199.617188 220.152344 199.296875 220.285156 C 198.976562 220.417969 198.675781 220.578125 198.386719 220.769531 C 198.101562 220.960938 197.835938 221.179688 197.589844 221.421875 C 197.34375 221.667969 197.125 221.933594 196.933594 222.21875 C 196.742188 222.507812 196.578125 222.8125 196.445312 223.128906 C 196.3125 223.449219 196.214844 223.777344 196.144531 224.117188 C 196.078125 224.457031 196.042969 224.796875 196.042969 225.144531 C 196.042969 225.488281 196.078125 225.832031 196.144531 226.171875 C 196.210938 226.507812 196.3125 226.839844 196.441406 227.15625 C 196.574219 227.476562 196.738281 227.78125 196.929688 228.066406 C 197.121094 228.355469 197.335938 228.621094 197.582031 228.867188 C 197.824219 229.109375 198.089844 229.328125 198.378906 229.519531 C 198.664062 229.714844 198.96875 229.875 199.289062 230.007812 C 199.605469 230.140625 199.9375 230.242188 200.273438 230.308594 C 200.613281 230.375 200.957031 230.410156 201.300781 230.410156 C 201.648438 230.410156 201.988281 230.378906 202.328125 230.3125 C 202.667969 230.242188 202.996094 230.144531 203.316406 230.011719 C 203.636719 229.878906 203.9375 229.71875 204.226562 229.527344 C 204.515625 229.335938 204.78125 229.117188 205.023438 228.875 C 205.269531 228.628906 205.488281 228.363281 205.679688 228.078125 C 205.871094 227.789062 206.035156 227.488281 206.167969 227.167969 C 206.300781 226.847656 206.398438 226.519531 206.46875 226.179688 C 206.535156 225.839844 206.570312 225.5 206.570312 225.152344 C 206.570312 224.808594 206.535156 224.464844 206.46875 224.125 C 206.402344 223.789062 206.300781 223.457031 206.171875 223.136719 C 206.039062 222.820312 205.875 222.515625 205.683594 222.226562 C 205.492188 221.941406 205.273438 221.675781 205.03125 221.429688 C 204.785156 221.183594 204.519531 220.964844 204.230469 220.773438 C 203.945312 220.582031 203.640625 220.417969 203.320312 220.289062 C 203.003906 220.15625 202.671875 220.054688 202.335938 219.988281 C 201.996094 219.917969 201.652344 219.886719 201.308594 219.886719 Z M 201.3125 227.585938 C 200.988281 227.585938 200.679688 227.523438 200.382812 227.398438 C 200.085938 227.273438 199.820312 227.097656 199.59375 226.871094 C 199.367188 226.640625 199.191406 226.378906 199.066406 226.078125 C 198.945312 225.78125 198.882812 225.472656 198.882812 225.148438 C 198.882812 224.824219 198.945312 224.515625 199.066406 224.21875 C 199.191406 223.917969 199.367188 223.65625 199.59375 223.429688 C 199.820312 223.199219 200.085938 223.023438 200.382812 222.898438 C 200.679688 222.773438 200.988281 222.710938 201.3125 222.710938 C 201.636719 222.710938 201.949219 222.773438 202.246094 222.894531 C 202.546875 223.019531 202.808594 223.195312 203.039062 223.421875 C 203.269531 223.652344 203.445312 223.914062 203.570312 224.214844 C 203.695312 224.511719 203.753906 224.824219 203.753906 225.148438 C 203.753906 225.472656 203.695312 225.785156 203.570312 226.082031 C 203.445312 226.382812 203.269531 226.644531 203.039062 226.875 C 202.808594 227.101562 202.546875 227.277344 202.246094 227.402344 C 201.949219 227.523438 201.636719 227.585938 201.3125 227.585938 Z M 201.3125 227.585938 " fill-opacity="1" fill-rule="nonzero"/><path fill="#000000" d="M 226.253906 56.667969 L 177.996094 56.667969 C 177.804688 56.667969 177.621094 56.703125 177.445312 56.777344 C 177.269531 56.847656 177.113281 56.953125 176.976562 57.085938 C 176.84375 57.222656 176.738281 57.378906 176.667969 57.554688 C 176.59375 57.730469 176.558594 57.914062 176.558594 58.101562 C 176.558594 58.292969 176.59375 58.476562 176.667969 58.652344 C 176.738281 58.828125 176.84375 58.984375 176.976562 59.117188 C 177.113281 59.253906 177.269531 59.359375 177.445312 59.429688 C 177.621094 59.503906 177.804688 59.539062 177.996094 59.539062 L 226.253906 59.539062 C 226.445312 59.539062 226.628906 59.503906 226.804688 59.429688 C 226.980469 59.359375 227.136719 59.253906 227.269531 59.117188 C 227.40625 58.984375 227.507812 58.828125 227.582031 58.652344 C 227.65625 58.476562 227.691406 58.292969 227.691406 58.101562 C 227.691406 57.914062 227.65625 57.730469 227.582031 57.554688 C 227.507812 57.378906 227.40625 57.222656 227.269531 57.085938 C 227.136719 56.953125 226.980469 56.847656 226.804688 56.777344 C 226.628906 56.703125 226.445312 56.667969 226.253906 56.667969 Z M 226.253906 56.667969 " fill-opacity="1" fill-rule="nonzero"/><path fill="#000000" d="M 114.699219 238.832031 C 114.375 238.839844 114.050781 238.878906 113.734375 238.949219 C 113.414062 239.019531 113.105469 239.121094 112.804688 239.25 C 112.503906 239.378906 112.222656 239.539062 111.953125 239.722656 C 111.683594 239.90625 111.4375 240.117188 111.207031 240.351562 C 110.980469 240.582031 110.777344 240.835938 110.597656 241.109375 C 110.417969 241.382812 110.265625 241.671875 110.144531 241.972656 C 110.019531 242.273438 109.925781 242.585938 109.863281 242.90625 C 109.800781 243.226562 109.769531 243.550781 109.769531 243.878906 C 109.769531 244.203125 109.800781 244.527344 109.863281 244.847656 C 109.925781 245.167969 110.019531 245.480469 110.144531 245.78125 C 110.265625 246.082031 110.417969 246.371094 110.597656 246.644531 C 110.777344 246.917969 110.980469 247.171875 111.207031 247.402344 C 111.4375 247.636719 111.683594 247.847656 111.953125 248.03125 C 112.222656 248.21875 112.503906 248.375 112.804688 248.503906 C 113.105469 248.636719 113.414062 248.734375 113.734375 248.804688 C 114.050781 248.875 114.375 248.914062 114.699219 248.921875 C 115.03125 248.921875 115.359375 248.886719 115.683594 248.824219 C 116.007812 248.757812 116.324219 248.664062 116.628906 248.535156 C 116.9375 248.410156 117.226562 248.253906 117.5 248.070312 C 117.777344 247.882812 118.03125 247.675781 118.265625 247.441406 C 118.5 247.207031 118.710938 246.953125 118.894531 246.675781 C 119.078125 246.402344 119.234375 246.113281 119.359375 245.804688 C 119.488281 245.5 119.582031 245.183594 119.648438 244.859375 C 119.710938 244.535156 119.746094 244.207031 119.746094 243.875 C 119.746094 243.546875 119.710938 243.21875 119.644531 242.894531 C 119.578125 242.570312 119.484375 242.257812 119.355469 241.953125 C 119.226562 241.648438 119.070312 241.355469 118.886719 241.082031 C 118.703125 240.808594 118.496094 240.554688 118.261719 240.320312 C 118.027344 240.089844 117.773438 239.878906 117.496094 239.695312 C 117.222656 239.511719 116.929688 239.359375 116.625 239.234375 C 116.320312 239.105469 116.007812 239.011719 115.683594 238.945312 C 115.359375 238.882812 115.03125 238.847656 114.699219 238.847656 Z M 114.699219 246.097656 C 114.253906 246.09375 113.84375 245.96875 113.46875 245.71875 C 113.097656 245.46875 112.828125 245.136719 112.65625 244.722656 C 112.484375 244.3125 112.441406 243.882812 112.53125 243.445312 C 112.617188 243.003906 112.816406 242.625 113.132812 242.308594 C 113.570312 241.882812 114.09375 241.664062 114.703125 241.660156 C 115.003906 241.648438 115.292969 241.695312 115.574219 241.804688 C 115.855469 241.914062 116.105469 242.070312 116.320312 242.28125 C 116.539062 242.488281 116.707031 242.734375 116.824219 243.011719 C 116.941406 243.285156 117 243.578125 117 243.878906 C 117 244.179688 116.941406 244.46875 116.824219 244.746094 C 116.707031 245.019531 116.539062 245.265625 116.320312 245.472656 C 116.105469 245.683594 115.855469 245.839844 115.574219 245.949219 C 115.292969 246.058594 115.003906 246.105469 114.703125 246.097656 Z M 114.699219 246.097656 " fill-opacity="1" fill-rule="nonzero"/><path fill="#000000" d="M 132.074219 89.164062 L 96.972656 89.164062 C 96.785156 89.164062 96.605469 89.203125 96.433594 89.273438 C 96.257812 89.34375 96.105469 89.445312 95.972656 89.578125 C 95.839844 89.710938 95.738281 89.863281 95.667969 90.039062 C 95.597656 90.210938 95.558594 90.390625 95.558594 90.578125 C 95.558594 90.765625 95.597656 90.945312 95.667969 91.117188 C 95.738281 91.292969 95.839844 91.445312 95.972656 91.578125 C 96.105469 91.710938 96.257812 91.8125 96.433594 91.882812 C 96.605469 91.957031 96.785156 91.992188 96.972656 91.992188 L 132.074219 91.992188 C 132.261719 91.992188 132.441406 91.957031 132.613281 91.882812 C 132.789062 91.8125 132.941406 91.710938 133.074219 91.578125 C 133.207031 91.445312 133.308594 91.292969 133.382812 91.121094 C 133.453125 90.945312 133.488281 90.765625 133.488281 90.578125 C 133.488281 90.390625 133.453125 90.210938 133.382812 90.035156 C 133.308594 89.863281 133.207031 89.710938 133.074219 89.578125 C 132.941406 89.445312 132.789062 89.34375 132.613281 89.273438 C 132.441406 89.199219 132.261719 89.164062 132.074219 89.164062 Z M 132.074219 89.164062 " fill-opacity="1" fill-rule="nonzero"/><path fill="#000000" d="M 55.257812 174.707031 C 56.539062 175.378906 57.859375 175.957031 59.226562 176.4375 L 60.152344 173.761719 C 58.921875 173.328125 57.726562 172.808594 56.570312 172.199219 Z M 55.257812 174.707031 " fill-opacity="1" fill-rule="nonzero"/><path fill="#000000" d="M 55.535156 122.046875 L 56.824219 124.5625 C 57.988281 123.96875 59.183594 123.460938 60.421875 123.039062 L 59.511719 120.363281 C 58.144531 120.828125 56.820312 121.390625 55.535156 122.046875 Z M 55.535156 122.046875 " fill-opacity="1" fill-rule="nonzero"/><path fill="#000000" d="M 48.527344 127.042969 L 50.484375 129.082031 C 51.425781 128.179688 52.429688 127.347656 53.492188 126.589844 L 51.851562 124.289062 C 50.675781 125.125 49.570312 126.042969 48.527344 127.042969 Z M 48.527344 127.042969 " fill-opacity="1" fill-rule="nonzero"/><path fill="#000000" d="M 42.21875 148.449219 C 42.21875 147.753906 42.246094 147.050781 42.300781 146.359375 L 39.480469 146.140625 C 39.421875 146.90625 39.390625 147.683594 39.390625 148.449219 C 39.390625 149.109375 39.414062 149.785156 39.460938 150.453125 L 42.277344 150.265625 C 42.238281 149.660156 42.21875 149.046875 42.21875 148.449219 Z M 42.21875 148.449219 " fill-opacity="1" fill-rule="nonzero"/><path fill="#000000" d="M 42.820312 154.132812 L 40.0625 154.730469 C 40.363281 156.140625 40.769531 157.519531 41.277344 158.871094 L 43.921875 157.878906 C 43.464844 156.65625 43.097656 155.40625 42.820312 154.132812 Z M 42.820312 154.132812 " fill-opacity="1" fill-rule="nonzero"/><path fill="#000000" d="M 48.296875 169.636719 C 49.328125 170.648438 50.425781 171.582031 51.589844 172.4375 L 53.257812 170.15625 C 52.203125 169.386719 51.210938 168.542969 50.277344 167.628906 Z M 48.296875 169.636719 " fill-opacity="1" fill-rule="nonzero"/><path fill="#000000" d="M 43.082031 162.789062 C 43.78125 164.050781 44.566406 165.253906 45.4375 166.398438 L 47.683594 164.6875 C 46.894531 163.648438 46.183594 162.558594 45.550781 161.417969 Z M 43.082031 162.789062 " fill-opacity="1" fill-rule="nonzero"/><path fill="#000000" d="M 43.238281 133.835938 L 45.703125 135.230469 C 46.347656 134.097656 47.070312 133.011719 47.871094 131.984375 L 45.640625 130.246094 C 44.753906 131.386719 43.953125 132.582031 43.238281 133.835938 Z M 43.238281 133.835938 " fill-opacity="1" fill-rule="nonzero"/><path fill="#000000" d="M 44.023438 138.761719 L 41.375 137.742188 C 40.855469 139.085938 40.433594 140.464844 40.113281 141.875 L 42.871094 142.496094 C 43.164062 141.222656 43.546875 139.980469 44.023438 138.761719 Z M 44.023438 138.761719 " fill-opacity="1" fill-rule="nonzero"/><path fill="#000000" d="M 121.234375 175.277344 L 125.351562 175.277344 L 125.351562 178.101562 L 121.234375 178.101562 Z M 121.234375 175.277344 " fill-opacity="1" fill-rule="nonzero"/><path fill="#000000" d="M 63.382812 177.5625 C 64.796875 177.835938 66.222656 178.007812 67.664062 178.074219 L 67.789062 175.25 C 66.488281 175.191406 65.195312 175.035156 63.914062 174.789062 Z M 63.382812 177.5625 " fill-opacity="1" fill-rule="nonzero"/><path fill="#000000" d="M 104.773438 175.277344 L 108.890625 175.277344 L 108.890625 178.101562 L 104.773438 178.101562 Z M 104.773438 175.277344 " fill-opacity="1" fill-rule="nonzero"/><path fill="#000000" d="M 129.464844 175.277344 L 133.582031 175.277344 L 133.582031 178.101562 L 129.464844 178.101562 Z M 129.464844 175.277344 " fill-opacity="1" fill-rule="nonzero"/><path fill="#000000" d="M 113.003906 175.277344 L 117.121094 175.277344 L 117.121094 178.101562 L 113.003906 178.101562 Z M 113.003906 175.277344 " fill-opacity="1" fill-rule="nonzero"/><path fill="#000000" d="M 96.542969 175.277344 L 100.65625 175.277344 L 100.65625 178.101562 L 96.542969 178.101562 Z M 96.542969 175.277344 " fill-opacity="1" fill-rule="nonzero"/><path fill="#000000" d="M 80.078125 175.277344 L 84.195312 175.277344 L 84.195312 178.101562 L 80.078125 178.101562 Z M 80.078125 175.277344 " fill-opacity="1" fill-rule="nonzero"/><path fill="#000000" d="M 63.695312 119.28125 L 64.203125 122.0625 C 65.484375 121.824219 66.777344 121.683594 68.082031 121.636719 L 67.984375 118.8125 C 66.542969 118.867188 65.113281 119.023438 63.695312 119.28125 Z M 63.695312 119.28125 " fill-opacity="1" fill-rule="nonzero"/><path fill="#000000" d="M 88.3125 175.277344 L 92.425781 175.277344 L 92.425781 178.101562 L 88.3125 178.101562 Z M 88.3125 175.277344 " fill-opacity="1" fill-rule="nonzero"/><path fill="#000000" d="M 120.566406 162.921875 L 119.5625 148.492188 L 219.261719 173.367188 Z M 120.566406 162.921875 " fill-opacity="1" fill-rule="nonzero"/><path fill="#000000" d="M 219.261719 173.367188 L 122.46875 204.152344 L 120.75 191.632812 Z M 219.261719 173.367188 " fill-opacity="1" fill-rule="nonzero"/><path fill="#000000" d="M 219.261719 173.367188 L 106.472656 191.632812 L 120.308594 166.121094 Z M 219.261719 173.367188 " fill-opacity="1" fill-rule="nonzero"/></svg>