<svg xmlns="http://www.w3.org/2000/svg" xmlns:xlink="http://www.w3.org/1999/xlink" width="500" zoomAndPan="magnify" viewBox="0 0 375 374.999991" height="500" preserveAspectRatio="xMidYMid meet" version="1.0"><defs><clipPath id="cb890450de"><path d="M 60 53.234375 L 268 53.234375 L 268 274.484375 L 60 274.484375 Z M 60 53.234375 " clip-rule="nonzero"/></clipPath></defs><g clip-path="url(#cb890450de)"><path fill="#000000" d="M 261.90625 99.492188 L 238.371094 99.492188 L 224.488281 53.820312 L 224.3125 53.234375 L 221.695312 61.847656 L 210.246094 99.492188 L 65.832031 99.492188 C 65.464844 99.492188 65.105469 99.53125 64.746094 99.601562 C 64.386719 99.675781 64.039062 99.78125 63.699219 99.921875 C 63.363281 100.0625 63.042969 100.238281 62.738281 100.441406 C 62.433594 100.644531 62.152344 100.875 61.894531 101.132812 C 61.636719 101.394531 61.40625 101.675781 61.203125 101.980469 C 61 102.285156 60.828125 102.605469 60.6875 102.945312 C 60.546875 103.28125 60.441406 103.628906 60.371094 103.988281 C 60.296875 104.347656 60.261719 104.710938 60.261719 105.074219 L 60.261719 234.019531 C 60.261719 234.382812 60.296875 234.746094 60.371094 235.105469 C 60.441406 235.464844 60.546875 235.816406 60.6875 236.152344 C 60.828125 236.492188 61 236.8125 61.203125 237.117188 C 61.410156 237.421875 61.640625 237.703125 61.898438 237.964844 C 62.15625 238.222656 62.441406 238.453125 62.746094 238.65625 C 63.050781 238.863281 63.371094 239.035156 63.710938 239.175781 C 64.046875 239.316406 64.398438 239.421875 64.757812 239.492188 C 65.117188 239.566406 65.476562 239.601562 65.84375 239.601562 L 134.015625 239.601562 C 134.527344 241.917969 134.738281 244.257812 134.648438 246.625 L 134.59375 248.03125 C 134.511719 249.203125 134.367188 250.363281 134.15625 251.519531 C 133.007812 257.824219 123.285156 259.136719 123.1875 259.148438 L 123.1875 259.25 L 117.242188 259.25 C 116.875 259.25 116.511719 259.285156 116.152344 259.355469 C 115.792969 259.429688 115.445312 259.535156 115.105469 259.675781 C 114.769531 259.816406 114.445312 259.988281 114.140625 260.191406 C 113.835938 260.394531 113.554688 260.625 113.296875 260.882812 C 113.039062 261.144531 112.804688 261.425781 112.601562 261.730469 C 112.398438 262.035156 112.226562 262.355469 112.085938 262.695312 C 111.945312 263.03125 111.839844 263.382812 111.765625 263.742188 C 111.695312 264.101562 111.660156 264.460938 111.660156 264.828125 L 111.660156 268.914062 C 111.660156 269.28125 111.695312 269.644531 111.765625 270.003906 C 111.839844 270.363281 111.945312 270.710938 112.085938 271.050781 C 112.226562 271.390625 112.398438 271.710938 112.601562 272.015625 C 112.804688 272.320312 113.035156 272.601562 113.296875 272.859375 C 113.554688 273.121094 113.835938 273.351562 114.140625 273.554688 C 114.445312 273.757812 114.769531 273.929688 115.105469 274.070312 C 115.445312 274.210938 115.792969 274.316406 116.152344 274.390625 C 116.511719 274.460938 116.875 274.496094 117.242188 274.496094 L 210.503906 274.496094 C 210.871094 274.496094 211.234375 274.460938 211.59375 274.390625 C 211.953125 274.316406 212.300781 274.210938 212.640625 274.070312 C 212.980469 273.929688 213.300781 273.757812 213.605469 273.554688 C 213.910156 273.351562 214.191406 273.121094 214.453125 272.859375 C 214.710938 272.601562 214.941406 272.320312 215.144531 272.015625 C 215.347656 271.710938 215.519531 271.390625 215.660156 271.050781 C 215.800781 270.710938 215.910156 270.363281 215.980469 270.003906 C 216.050781 269.644531 216.085938 269.28125 216.089844 268.914062 L 216.089844 264.828125 C 216.085938 264.460938 216.050781 264.101562 215.980469 263.742188 C 215.90625 263.382812 215.800781 263.03125 215.660156 262.695312 C 215.519531 262.355469 215.347656 262.035156 215.144531 261.730469 C 214.941406 261.425781 214.710938 261.144531 214.449219 260.882812 C 214.191406 260.625 213.910156 260.394531 213.605469 260.191406 C 213.300781 259.988281 212.976562 259.816406 212.640625 259.675781 C 212.300781 259.535156 211.953125 259.429688 211.59375 259.355469 C 211.234375 259.285156 210.871094 259.25 210.503906 259.25 L 204.550781 259.25 L 204.550781 259.148438 C 204.457031 259.148438 194.738281 257.847656 193.585938 251.519531 C 193.296875 249.898438 193.132812 248.269531 193.09375 246.625 C 193.007812 244.253906 193.222656 241.914062 193.738281 239.597656 L 261.90625 239.597656 C 262.273438 239.597656 262.636719 239.5625 262.996094 239.492188 C 263.355469 239.417969 263.703125 239.3125 264.042969 239.171875 C 264.382812 239.03125 264.703125 238.859375 265.007812 238.65625 C 265.3125 238.453125 265.59375 238.222656 265.855469 237.960938 C 266.113281 237.703125 266.34375 237.421875 266.546875 237.117188 C 266.753906 236.8125 266.925781 236.488281 267.066406 236.152344 C 267.203125 235.8125 267.3125 235.464844 267.382812 235.105469 C 267.453125 234.746094 267.492188 234.382812 267.492188 234.015625 L 267.492188 105.074219 C 267.492188 104.710938 267.453125 104.347656 267.382812 103.988281 C 267.3125 103.628906 267.203125 103.277344 267.066406 102.941406 C 266.925781 102.601562 266.753906 102.28125 266.546875 101.976562 C 266.34375 101.671875 266.113281 101.386719 265.855469 101.128906 C 265.59375 100.871094 265.3125 100.640625 265.007812 100.433594 C 264.703125 100.230469 264.382812 100.058594 264.042969 99.917969 C 263.703125 99.777344 263.355469 99.671875 262.996094 99.601562 C 262.636719 99.527344 262.273438 99.492188 261.90625 99.492188 Z M 207.464844 226.070312 L 72.015625 226.070312 L 72.015625 109.617188 L 207.46875 109.617188 Z M 210.464844 109.351562 C 212.347656 106.75 214.328125 105.429688 216.34375 105.425781 C 219.398438 105.425781 221.988281 108.351562 222.800781 109.378906 L 222.800781 226.070312 L 210.460938 226.070312 Z M 225.816406 226.070312 L 225.816406 109.355469 C 227.699219 106.75 229.679688 105.425781 231.695312 105.425781 C 234.757812 105.425781 237.34375 108.351562 238.15625 109.378906 L 238.15625 226.070312 Z M 241.167969 109.617188 L 255.738281 109.617188 L 255.738281 226.070312 L 241.167969 226.070312 Z M 231.714844 102.425781 C 229.03125 102.425781 226.539062 103.789062 224.277344 106.472656 C 222.71875 104.8125 219.886719 102.425781 216.371094 102.425781 C 214.84375 102.4375 213.433594 102.84375 212.136719 103.648438 L 219.816406 78.378906 L 228.003906 75.644531 L 236.613281 103.953125 C 235.121094 102.972656 233.484375 102.464844 231.703125 102.425781 Z M 227.128906 72.765625 L 220.886719 74.847656 L 224.324219 63.527344 Z M 190.523438 240.476562 C 190.507812 240.582031 190.484375 240.6875 190.46875 240.792969 C 190.429688 241.03125 190.398438 241.265625 190.367188 241.5 C 190.367188 241.550781 190.367188 241.597656 190.34375 241.644531 C 190.269531 242.230469 190.210938 242.8125 190.167969 243.398438 C 190.167969 243.425781 190.167969 243.453125 190.167969 243.480469 C 190.148438 243.742188 190.132812 244 190.125 244.261719 L 190.125 244.457031 C 190.125 244.679688 190.109375 244.902344 190.105469 245.128906 C 190.105469 245.144531 190.105469 245.160156 190.105469 245.175781 L 137.648438 245.175781 C 137.617188 243.4375 137.445312 241.714844 137.125 240.003906 L 190.617188 240.003906 C 190.574219 240.164062 190.550781 240.3125 190.523438 240.476562 Z M 213.089844 264.828125 L 213.089844 268.914062 C 213.089844 269.257812 213.023438 269.585938 212.890625 269.902344 C 212.757812 270.21875 212.570312 270.496094 212.328125 270.738281 C 212.085938 270.980469 211.808594 271.167969 211.492188 271.300781 C 211.175781 271.429688 210.847656 271.5 210.503906 271.5 L 117.242188 271.5 C 116.898438 271.5 116.570312 271.429688 116.253906 271.300781 C 115.9375 271.167969 115.660156 270.980469 115.417969 270.738281 C 115.175781 270.496094 114.988281 270.21875 114.855469 269.902344 C 114.726562 269.585938 114.660156 269.257812 114.65625 268.914062 L 114.65625 264.828125 C 114.65625 264.488281 114.722656 264.15625 114.855469 263.839844 C 114.984375 263.523438 115.171875 263.246094 115.414062 263.003906 C 115.65625 262.761719 115.9375 262.574219 116.253906 262.441406 C 116.570312 262.3125 116.898438 262.246094 117.242188 262.246094 L 210.503906 262.246094 C 210.847656 262.246094 211.175781 262.3125 211.492188 262.441406 C 211.808594 262.574219 212.089844 262.761719 212.332031 263.003906 C 212.574219 263.246094 212.761719 263.523438 212.894531 263.839844 C 213.023438 264.15625 213.089844 264.488281 213.089844 264.828125 Z M 195.953125 259.25 L 131.78125 259.25 C 134.253906 257.730469 136.464844 255.449219 137.089844 252.050781 C 137.320312 250.769531 137.476562 249.476562 137.5625 248.175781 L 190.175781 248.175781 C 190.261719 249.476562 190.417969 250.769531 190.648438 252.054688 C 191.265625 255.449219 193.476562 257.730469 195.953125 259.25 Z M 264.488281 234.011719 C 264.488281 234.351562 264.417969 234.679688 264.289062 234.996094 C 264.15625 235.3125 263.96875 235.59375 263.726562 235.835938 C 263.484375 236.078125 263.207031 236.261719 262.890625 236.394531 C 262.574219 236.527344 262.246094 236.59375 261.902344 236.597656 L 65.832031 236.597656 C 65.488281 236.59375 65.160156 236.527344 64.84375 236.394531 C 64.527344 236.261719 64.25 236.078125 64.007812 235.835938 C 63.765625 235.59375 63.578125 235.3125 63.445312 234.996094 C 63.316406 234.679688 63.246094 234.351562 63.246094 234.011719 L 63.246094 105.074219 C 63.246094 104.734375 63.316406 104.40625 63.445312 104.089844 C 63.578125 103.773438 63.765625 103.492188 64.007812 103.25 C 64.25 103.011719 64.527344 102.824219 64.84375 102.691406 C 65.160156 102.558594 65.488281 102.492188 65.832031 102.488281 L 209.347656 102.488281 L 208.09375 106.621094 L 69.015625 106.621094 L 69.015625 229.070312 L 258.71875 229.070312 L 258.71875 106.621094 L 240.539062 106.621094 L 239.269531 102.488281 L 261.90625 102.488281 C 262.25 102.492188 262.578125 102.558594 262.894531 102.691406 C 263.210938 102.824219 263.488281 103.011719 263.730469 103.25 C 263.972656 103.492188 264.160156 103.773438 264.292969 104.089844 C 264.425781 104.40625 264.492188 104.734375 264.492188 105.074219 Z M 264.488281 234.011719 " fill-opacity="1" fill-rule="nonzero"/></g><path fill="#000000" d="M 161.566406 184.972656 L 158.570312 184.972656 L 158.570312 186.292969 L 157.25 186.292969 L 157.25 189.292969 L 161.566406 189.292969 Z M 161.566406 184.972656 " fill-opacity="1" fill-rule="nonzero"/><path fill="#000000" d="M 120.074219 186.292969 L 125.425781 186.292969 L 125.425781 189.292969 L 120.074219 189.292969 Z M 120.074219 186.292969 " fill-opacity="1" fill-rule="nonzero"/><path fill="#000000" d="M 101.484375 186.292969 L 106.835938 186.292969 L 106.835938 189.292969 L 101.484375 189.292969 Z M 101.484375 186.292969 " fill-opacity="1" fill-rule="nonzero"/><path fill="#000000" d="M 110.78125 186.292969 L 116.132812 186.292969 L 116.132812 189.292969 L 110.78125 189.292969 Z M 110.78125 186.292969 " fill-opacity="1" fill-rule="nonzero"/><path fill="#000000" d="M 138.660156 186.292969 L 144.011719 186.292969 L 144.011719 189.292969 L 138.660156 189.292969 Z M 138.660156 186.292969 " fill-opacity="1" fill-rule="nonzero"/><path fill="#000000" d="M 147.957031 186.292969 L 153.308594 186.292969 L 153.308594 189.292969 L 147.957031 189.292969 Z M 147.957031 186.292969 " fill-opacity="1" fill-rule="nonzero"/><path fill="#000000" d="M 97.542969 186.292969 L 96.222656 186.292969 L 96.222656 184.972656 L 93.222656 184.972656 L 93.222656 189.292969 L 97.542969 189.292969 Z M 97.542969 186.292969 " fill-opacity="1" fill-rule="nonzero"/><path fill="#000000" d="M 93.222656 166.847656 L 96.222656 166.847656 L 96.222656 172.066406 L 93.222656 172.066406 Z M 93.222656 166.847656 " fill-opacity="1" fill-rule="nonzero"/><path fill="#000000" d="M 93.222656 157.789062 L 96.222656 157.789062 L 96.222656 163.007812 L 93.222656 163.007812 Z M 93.222656 157.789062 " fill-opacity="1" fill-rule="nonzero"/><path fill="#000000" d="M 93.222656 175.910156 L 96.222656 175.910156 L 96.222656 181.128906 L 93.222656 181.128906 Z M 93.222656 175.910156 " fill-opacity="1" fill-rule="nonzero"/><path fill="#000000" d="M 93.222656 139.664062 L 96.222656 139.664062 L 96.222656 144.886719 L 93.222656 144.886719 Z M 93.222656 139.664062 " fill-opacity="1" fill-rule="nonzero"/><path fill="#000000" d="M 93.222656 148.726562 L 96.222656 148.726562 L 96.222656 153.945312 L 93.222656 153.945312 Z M 93.222656 148.726562 " fill-opacity="1" fill-rule="nonzero"/><path fill="#000000" d="M 93.222656 130.601562 L 96.222656 130.601562 L 96.222656 135.824219 L 93.222656 135.824219 Z M 93.222656 130.601562 " fill-opacity="1" fill-rule="nonzero"/><path fill="#000000" d="M 96.222656 125.4375 L 97.542969 125.4375 L 97.542969 122.445312 L 93.222656 122.445312 L 93.222656 126.761719 L 96.222656 126.761719 Z M 96.222656 125.4375 " fill-opacity="1" fill-rule="nonzero"/><path fill="#000000" d="M 129.367188 122.445312 L 134.71875 122.445312 L 134.71875 125.441406 L 129.367188 125.441406 Z M 129.367188 122.445312 " fill-opacity="1" fill-rule="nonzero"/><path fill="#000000" d="M 147.957031 122.445312 L 153.308594 122.445312 L 153.308594 125.441406 L 147.957031 125.441406 Z M 147.957031 122.445312 " fill-opacity="1" fill-rule="nonzero"/><path fill="#000000" d="M 138.660156 122.445312 L 144.011719 122.445312 L 144.011719 125.441406 L 138.660156 125.441406 Z M 138.660156 122.445312 " fill-opacity="1" fill-rule="nonzero"/><path fill="#000000" d="M 110.78125 122.445312 L 116.132812 122.445312 L 116.132812 125.441406 L 110.78125 125.441406 Z M 110.78125 122.445312 " fill-opacity="1" fill-rule="nonzero"/><path fill="#000000" d="M 101.484375 122.445312 L 106.835938 122.445312 L 106.835938 125.441406 L 101.484375 125.441406 Z M 101.484375 122.445312 " fill-opacity="1" fill-rule="nonzero"/><path fill="#000000" d="M 120.074219 122.445312 L 125.425781 122.445312 L 125.425781 125.441406 L 120.074219 125.441406 Z M 120.074219 122.445312 " fill-opacity="1" fill-rule="nonzero"/><path fill="#000000" d="M 158.570312 126.761719 L 161.566406 126.761719 L 161.566406 122.445312 L 157.25 122.445312 L 157.25 125.4375 L 158.570312 125.4375 Z M 158.570312 126.761719 " fill-opacity="1" fill-rule="nonzero"/><path fill="#000000" d="M 158.570312 139.664062 L 161.566406 139.664062 L 161.566406 144.886719 L 158.570312 144.886719 Z M 158.570312 139.664062 " fill-opacity="1" fill-rule="nonzero"/><path fill="#000000" d="M 158.570312 157.789062 L 161.566406 157.789062 L 161.566406 163.007812 L 158.570312 163.007812 Z M 158.570312 157.789062 " fill-opacity="1" fill-rule="nonzero"/><path fill="#000000" d="M 158.570312 130.601562 L 161.566406 130.601562 L 161.566406 135.824219 L 158.570312 135.824219 Z M 158.570312 130.601562 " fill-opacity="1" fill-rule="nonzero"/><path fill="#000000" d="M 158.570312 166.847656 L 161.566406 166.847656 L 161.566406 172.066406 L 158.570312 172.066406 Z M 158.570312 166.847656 " fill-opacity="1" fill-rule="nonzero"/><path fill="#000000" d="M 158.570312 175.910156 L 161.566406 175.910156 L 161.566406 181.128906 L 158.570312 181.128906 Z M 158.570312 175.910156 " fill-opacity="1" fill-rule="nonzero"/><path fill="#000000" d="M 163.878906 215.902344 C 164.953125 215.902344 166.023438 215.851562 167.09375 215.746094 C 168.160156 215.640625 169.222656 215.484375 170.273438 215.273438 C 171.328125 215.0625 172.367188 214.804688 173.394531 214.492188 C 174.421875 214.179688 175.433594 213.820312 176.425781 213.40625 C 177.417969 212.996094 178.386719 212.539062 179.332031 212.03125 C 180.28125 211.527344 181.199219 210.976562 182.09375 210.378906 C 182.984375 209.78125 183.847656 209.144531 184.675781 208.460938 C 185.507812 207.78125 186.300781 207.058594 187.058594 206.300781 C 187.820312 205.542969 188.539062 204.746094 189.222656 203.917969 C 189.902344 203.085938 190.539062 202.226562 191.136719 201.332031 C 191.734375 200.441406 192.285156 199.519531 192.792969 198.574219 C 193.296875 197.625 193.757812 196.65625 194.167969 195.664062 C 194.578125 194.671875 194.9375 193.664062 195.25 192.636719 C 195.5625 191.609375 195.824219 190.570312 196.03125 189.515625 C 196.242188 188.460938 196.398438 187.402344 196.503906 186.332031 C 196.609375 185.265625 196.664062 184.195312 196.664062 183.121094 C 196.664062 182.046875 196.609375 180.976562 196.503906 179.90625 C 196.398438 178.835938 196.242188 177.777344 196.03125 176.722656 C 195.824219 175.671875 195.5625 174.628906 195.25 173.601562 C 194.9375 172.574219 194.578125 171.566406 194.167969 170.574219 C 193.757812 169.582031 193.296875 168.613281 192.792969 167.664062 C 192.285156 166.71875 191.734375 165.796875 191.136719 164.90625 C 190.539062 164.011719 189.902344 163.152344 189.222656 162.320312 C 188.539062 161.492188 187.820312 160.699219 187.058594 159.9375 C 186.300781 159.179688 185.507812 158.457031 184.675781 157.777344 C 183.847656 157.097656 182.984375 156.457031 182.09375 155.859375 C 181.199219 155.265625 180.28125 154.714844 179.332031 154.207031 C 178.386719 153.699219 177.417969 153.242188 176.425781 152.832031 C 175.433594 152.421875 174.421875 152.058594 173.394531 151.746094 C 172.367188 151.4375 171.328125 151.175781 170.273438 150.964844 C 169.222656 150.757812 168.160156 150.597656 167.09375 150.492188 C 166.023438 150.386719 164.953125 150.335938 163.878906 150.335938 C 163.101562 150.335938 162.328125 150.363281 161.566406 150.417969 L 161.566406 148.726562 L 158.570312 148.726562 L 158.570312 150.777344 C 143.011719 153.324219 131.101562 166.859375 131.101562 183.125 C 131.101562 184.195312 131.152344 185.25 131.253906 186.292969 L 129.367188 186.292969 L 129.367188 189.292969 L 131.683594 189.292969 C 134.578125 204.425781 147.910156 215.902344 163.878906 215.902344 Z M 134.097656 183.121094 C 134.097656 182.257812 134.136719 181.394531 134.214844 180.535156 C 134.289062 179.671875 134.402344 178.816406 134.554688 177.96875 C 134.703125 177.117188 134.890625 176.273438 135.113281 175.441406 C 135.335938 174.605469 135.597656 173.78125 135.890625 172.972656 C 136.1875 172.160156 136.515625 171.363281 136.878906 170.578125 C 137.246094 169.796875 137.640625 169.03125 138.074219 168.28125 C 138.503906 167.53125 138.964844 166.804688 139.460938 166.09375 C 139.953125 165.386719 140.476562 164.699219 141.03125 164.039062 C 141.585938 163.375 142.167969 162.738281 142.777344 162.125 C 143.382812 161.511719 144.019531 160.925781 144.679688 160.371094 C 145.339844 159.8125 146.019531 159.285156 146.726562 158.785156 C 147.433594 158.289062 148.160156 157.820312 148.90625 157.386719 C 149.652344 156.953125 150.414062 156.550781 151.195312 156.179688 C 151.976562 155.8125 152.773438 155.480469 153.582031 155.179688 C 154.390625 154.878906 155.214844 154.617188 156.046875 154.386719 C 156.878906 154.160156 157.722656 153.96875 158.570312 153.8125 L 158.570312 153.941406 L 161.566406 153.941406 L 161.566406 153.417969 C 162.332031 153.363281 163.101562 153.332031 163.878906 153.332031 C 164.8125 153.332031 165.742188 153.375 166.671875 153.460938 C 167.597656 153.550781 168.523438 153.679688 169.4375 153.855469 C 170.355469 154.03125 171.261719 154.246094 172.15625 154.503906 C 173.050781 154.765625 173.933594 155.066406 174.800781 155.410156 C 175.667969 155.75 176.519531 156.132812 177.351562 156.554688 C 178.183594 156.976562 178.992188 157.4375 179.78125 157.933594 C 180.570312 158.433594 181.332031 158.96875 182.070312 159.539062 C 182.808594 160.109375 183.519531 160.710938 184.199219 161.347656 C 184.882812 161.984375 185.53125 162.652344 186.152344 163.347656 C 186.769531 164.046875 187.355469 164.773438 187.90625 165.523438 C 188.457031 166.277344 188.972656 167.054688 189.449219 167.855469 C 189.925781 168.65625 190.367188 169.476562 190.765625 170.320312 C 191.167969 171.164062 191.527344 172.019531 191.847656 172.898438 C 192.167969 173.773438 192.445312 174.664062 192.683594 175.566406 C 192.917969 176.46875 193.113281 177.378906 193.261719 178.300781 C 193.414062 179.21875 193.519531 180.144531 193.585938 181.074219 C 193.648438 182.003906 193.667969 182.9375 193.644531 183.871094 C 193.621094 184.800781 193.554688 185.730469 193.441406 186.65625 C 193.332031 187.582031 193.175781 188.503906 192.980469 189.414062 C 192.78125 190.324219 192.542969 191.226562 192.261719 192.113281 C 191.976562 193.003906 191.65625 193.878906 191.292969 194.734375 C 190.925781 195.59375 190.523438 196.433594 190.082031 197.253906 C 189.636719 198.078125 189.15625 198.875 188.640625 199.648438 C 188.121094 200.425781 187.570312 201.175781 186.980469 201.898438 C 186.390625 202.621094 185.769531 203.316406 185.117188 203.984375 C 184.464844 204.648438 183.78125 205.28125 183.066406 205.882812 C 182.355469 206.484375 181.613281 207.050781 180.847656 207.582031 C 180.082031 208.113281 179.292969 208.609375 178.480469 209.066406 C 177.667969 209.523438 176.832031 209.941406 175.980469 210.320312 C 175.128906 210.699219 174.261719 211.039062 173.378906 211.335938 C 172.492188 211.632812 171.597656 211.890625 170.691406 212.101562 C 169.78125 212.316406 168.867188 212.484375 167.941406 212.613281 C 167.019531 212.742188 166.089844 212.824219 165.160156 212.863281 C 164.226562 212.90625 163.296875 212.902344 162.363281 212.855469 C 161.433594 212.808594 160.503906 212.714844 159.582031 212.582031 C 158.660156 212.449219 157.746094 212.269531 156.839844 212.050781 C 155.933594 211.828125 155.039062 211.566406 154.15625 211.261719 C 153.273438 210.960938 152.410156 210.613281 151.558594 210.226562 C 150.710938 209.84375 149.882812 209.417969 149.070312 208.953125 C 148.261719 208.492188 147.476562 207.992188 146.714844 207.453125 C 145.953125 206.917969 145.214844 206.34375 144.507812 205.738281 C 143.800781 205.132812 143.121094 204.492188 142.472656 203.824219 C 141.824219 203.152344 141.207031 202.453125 140.625 201.726562 C 140.042969 200.996094 139.496094 200.242188 138.980469 199.464844 C 138.46875 198.683594 137.996094 197.882812 137.558594 197.058594 C 137.121094 196.234375 136.726562 195.390625 136.367188 194.53125 C 136.007812 193.667969 135.691406 192.792969 135.417969 191.902344 C 135.144531 191.011719 134.910156 190.109375 134.71875 189.195312 L 134.71875 186.292969 L 134.265625 186.292969 C 134.152344 185.242188 134.097656 184.183594 134.097656 183.125 Z M 134.097656 183.121094 " fill-opacity="1" fill-rule="nonzero"/><path fill="#000000" d="M 127.878906 161.253906 L 140.507812 183.125 L 153.132812 204.996094 L 102.621094 204.996094 Z M 127.878906 161.253906 " fill-opacity="1" fill-rule="nonzero"/></svg>